<svg width="228" height="228" viewBox="0 0 228 228" fill="none" xmlns="http://www.w3.org/2000/svg">
<path d="M31.5147 98.8584C30.3523 100.545 29.4128 102.375 28.7195 104.303L23.2748 104.279C22.218 104.275 21.206 103.852 20.461 103.102C19.7159 102.353 19.2987 101.338 19.3008 100.281V97.0892C19.3014 96.5655 19.4054 96.0471 19.6068 95.5637C19.8083 95.0803 20.1032 94.6415 20.4746 94.2723C20.8461 93.9032 21.2868 93.6111 21.7714 93.4127C22.2561 93.2143 22.7751 93.1136 23.2988 93.1163H27.3948C27.3426 93.3015 27.326 93.4949 27.3458 93.6863C27.4124 94.8764 27.8504 96.0156 28.5982 96.9438C29.3461 97.872 30.3661 98.5424 31.5147 98.8607V98.8584Z" fill="#FFDD00"/>
<path d="M93.7608 97.0925V100.575C93.7618 101.103 93.6584 101.625 93.4563 102.112C93.2543 102.599 92.9577 103.041 92.5837 103.413C92.2097 103.785 91.7657 104.079 91.2774 104.278C90.7891 104.477 90.2662 104.577 89.7388 104.573L73.5508 104.499C73.4831 104.435 73.409 104.377 73.3297 104.328C70.9505 102.782 61.9297 93.1196 61.9297 93.1196H89.7639C90.8204 93.1178 91.8344 93.535 92.5837 94.2798C93.3329 95.0246 93.7562 96.0361 93.7608 97.0925Z" fill="#FFDD00"/>
<path d="M34.6053 126.647L23.2748 126.573C22.218 126.569 21.206 126.145 20.461 125.396C19.7159 124.646 19.2987 123.632 19.3008 122.575V119.383C19.3011 118.323 19.7224 117.306 20.4722 116.557C21.2219 115.807 22.2386 115.386 23.2988 115.386H27.763C28.7506 119.786 31.1533 123.74 34.603 126.644L34.6053 126.647Z" fill="#FFDD00"/>
<path d="M79.071 119.411V122.892C79.0721 123.419 78.9686 123.942 78.7666 124.429C78.5646 124.916 78.268 125.358 77.894 125.73C77.52 126.101 77.076 126.395 76.5877 126.595C76.0994 126.794 75.5764 126.894 75.0491 126.89L68.2798 126.865C69.4323 122.181 68.2559 115.607 68.2559 115.607L68.5249 115.411H75.0491C75.5761 115.409 76.0984 115.51 76.5861 115.71C77.0737 115.91 77.5171 116.205 77.8907 116.576C78.2644 116.948 78.561 117.39 78.7636 117.876C78.9661 118.363 79.0706 118.884 79.071 119.411Z" fill="#FFDD00"/>
<path d="M113.971 81.3219L113.798 80.2435C113.77 80.0645 113.777 79.8816 113.82 79.7054C113.862 79.5293 113.94 79.3633 114.047 79.2173C114.154 79.0712 114.29 78.9479 114.445 78.8546C114.6 78.7613 114.773 78.6998 114.952 78.6737L137.711 75.2149C137.89 75.1863 138.073 75.1935 138.249 75.2362C138.425 75.2788 138.591 75.3561 138.737 75.4634C138.883 75.5708 139.007 75.7061 139.1 75.8615C139.193 76.0169 139.255 76.1892 139.281 76.3686L139.452 77.5451C139.481 77.7254 139.473 77.9097 139.429 78.087C139.386 78.2643 139.307 78.431 139.198 78.5774C139.089 78.7238 138.951 78.8469 138.794 78.9394C138.636 79.0319 138.462 79.0919 138.281 79.116L115.496 82.4767C115.141 82.5218 114.783 82.4261 114.498 82.2103C114.213 81.9945 114.023 81.6756 113.971 81.3219Z" fill="#FFDD00"/>
<path d="M115.148 88.9497L114.976 87.8713C114.948 87.6924 114.955 87.5096 114.997 87.3335C115.04 87.1574 115.117 86.9915 115.224 86.8455C115.332 86.6994 115.467 86.5761 115.622 86.4828C115.777 86.3894 115.949 86.3278 116.129 86.3015L133.861 83.6031C134.04 83.5745 134.223 83.5817 134.399 83.6243C134.575 83.6669 134.741 83.744 134.887 83.8512C135.033 83.9585 135.157 84.0936 135.25 84.2489C135.343 84.4041 135.405 84.5764 135.431 84.7557L135.602 85.9333C135.631 86.114 135.623 86.2985 135.579 86.476C135.534 86.6535 135.455 86.8204 135.346 86.9667C135.236 87.1131 135.098 87.2359 134.94 87.3281C134.782 87.4202 134.607 87.4797 134.426 87.5031L116.669 90.1034C116.493 90.1299 116.314 90.1208 116.141 90.0769C115.969 90.0329 115.807 89.9548 115.665 89.8473C115.524 89.7398 115.405 89.605 115.316 89.4508C115.227 89.2967 115.17 89.1263 115.148 88.9497Z" fill="#FFDD00"/>
<path d="M101.414 159.316C100.874 159.585 100.752 159.266 100.752 158.776C100.786 158.002 100.877 157.232 101.022 156.471C101.364 154.411 101.979 152.13 102.665 151.393C103.327 150.683 103.842 151.835 103.67 154.066C103.571 155.176 103.315 156.266 102.91 157.304C102.64 158.118 102.116 158.823 101.414 159.316Z" fill="#00231F"/>
<path d="M99.9436 146.072C100.116 145.458 100.434 145.458 100.802 146.023C101.037 146.412 101.211 146.835 101.317 147.277C101.499 147.956 101.582 148.659 101.562 149.362C101.54 150.223 101.383 151.076 101.096 151.888C100.802 152.644 100.415 153.361 99.9436 154.021C99.3444 154.886 98.6167 155.655 97.7856 156.301C97.2703 156.643 97.0252 156.473 97.1016 155.811C97.3451 154.738 97.7592 153.711 98.3282 152.769C98.9542 151.589 99.3781 150.313 99.5822 148.992C99.6803 148.404 99.7293 147.815 99.7783 147.325C99.7939 146.902 99.8516 146.482 99.9504 146.071L99.9436 146.072Z" fill="#00231F"/>
<path d="M96.8286 140.406C96.9996 139.671 97.3188 139.671 97.687 140.382C98.2588 141.676 98.5032 143.091 98.3983 144.502C98.2988 146.476 97.8066 148.41 96.9505 150.192C96.4003 151.428 95.6366 152.557 94.6945 153.527C94.1062 154.043 93.8851 153.822 94.0105 153.037C94.3173 151.74 94.7022 150.462 95.163 149.211C95.7172 147.538 96.1366 145.822 96.417 144.081C96.6325 142.491 96.6815 141.166 96.8286 140.406Z" fill="#00231F"/>
<path d="M85.8426 149.26C86.3877 148.997 86.9801 148.847 87.5845 148.818C87.9528 148.794 88.1238 148.843 88.0998 148.917C88.0759 148.991 87.8787 149.113 87.5104 149.284C87.0017 149.498 86.5233 149.779 86.0877 150.118C85.7607 150.366 85.4892 150.679 85.2907 151.038C85.0922 151.397 84.9711 151.794 84.9352 152.202C84.883 153.31 85.1022 154.413 85.5736 155.416C86.119 156.716 86.7814 157.964 87.5526 159.144C87.7738 159.463 87.9699 159.806 88.215 160.124C88.5286 160.524 88.7771 160.971 88.9514 161.449C89.0912 162.046 89.0397 162.673 88.8043 163.24C88.5926 163.728 88.3207 164.187 87.9949 164.608C86.7189 166.021 85.3506 167.348 83.8989 168.581C77.4636 174.338 75.2418 174.009 65.578 185.577C64.2902 187.105 63.1565 188.756 62.1933 190.506C61.531 191.76 61.2608 192.346 61.1388 192.223C61.0604 191.442 61.196 190.654 61.531 189.943C62.2519 187.991 63.2427 186.149 64.4745 184.471C72.4146 173.552 75.4686 172.893 83.1876 166.297C84.4657 165.288 85.6404 164.154 86.6942 162.913C86.8639 162.697 86.981 162.446 87.0362 162.177C87.0802 162.048 87.0711 161.907 87.0111 161.784L86.7409 161.343L86.4229 160.828C86.2268 160.484 86.0303 160.142 85.8335 159.802C85.0913 158.51 84.4832 157.145 84.0186 155.729C83.5624 154.447 83.4775 153.061 83.7735 151.733C83.9059 151.189 84.1613 150.684 84.5201 150.255C84.8788 149.827 85.3313 149.486 85.8426 149.26Z" fill="#00231F"/>
<path d="M110.219 122.06C109.999 121.054 95.4055 123.63 90.8387 123.876C90.4696 123.893 90.1207 124.05 89.8616 124.313C89.6025 124.577 89.4524 124.928 89.441 125.297C89.3179 129.295 88.9998 147.861 89.5881 151.712C89.6422 152.056 89.818 152.369 90.0835 152.594C90.349 152.82 90.6866 152.942 91.0347 152.939H91.501C91.7921 152.933 92.0753 152.843 92.3176 152.682C92.5598 152.52 92.7511 152.293 92.869 152.027C93.8004 149.697 96.1066 143.467 95.719 139.322C95.2277 134.147 99.7158 140.695 99.7158 143.002C99.7158 145.308 101.629 143.394 102.046 145.577C102.199 146.412 102.306 147.256 102.365 148.103C102.39 148.457 102.543 148.79 102.796 149.039C103.05 149.288 103.385 149.436 103.74 149.454C103.88 149.445 104.02 149.464 104.151 149.512C104.283 149.559 104.403 149.633 104.505 149.73C104.606 149.826 104.686 149.943 104.74 150.072C104.794 150.201 104.821 150.34 104.818 150.48C104.844 151.118 104.844 151.734 104.844 152.271C104.844 153.104 109.675 151.142 109.7 150.382C109.896 145.576 110.46 123.061 110.214 122.054L110.219 122.06ZM108.6 124.439L90.6722 126.996H90.622C90.5326 126.996 90.4463 126.964 90.3788 126.905C90.3113 126.846 90.2673 126.765 90.255 126.677C90.2401 126.576 90.265 126.474 90.3244 126.392C90.3838 126.309 90.473 126.253 90.573 126.236L108.502 123.684C108.602 123.672 108.704 123.698 108.786 123.757C108.868 123.816 108.924 123.904 108.944 124.004C108.949 124.106 108.918 124.206 108.855 124.287C108.792 124.368 108.702 124.424 108.602 124.445L108.6 124.439Z" fill="#FFDD00"/>
<path d="M198.907 55.5706C198.907 54.2695 198.931 52.9695 198.98 51.6707C199.111 50.3825 198.882 49.0833 198.317 47.9178C197.14 45.8578 194.59 46.25 192.554 46.275C183.283 46.3731 174.013 46.5201 164.738 46.845C161.255 46.967 156.179 46.3537 152.916 47.7035C153.932 47.9721 154.98 48.104 156.031 48.0956C160.446 48.3407 168.932 48.4878 179.059 48.5129C184.505 48.5368 190.268 47.9235 195.665 48.5619C195.934 48.561 196.195 48.6565 196.4 48.8309C196.568 49.048 196.655 49.317 196.645 49.5913C196.817 52.0446 196.792 54.5218 196.817 57.0013H149.437C148.039 47.903 146.616 38.5333 145.17 29.0417C145.17 29.0417 144.703 26.0777 144.703 26.0503C144.434 24.3084 144.019 22.2974 142.57 21.1198C140.534 19.452 137.983 20.5806 135.678 20.9237C134.31 21.1449 132.907 21.3649 131.533 21.561C129.547 21.8802 127.56 22.1743 125.598 22.4935C121.061 23.2049 116.499 23.8911 111.961 24.6025C107.914 25.2158 102.372 25.0938 98.6439 26.8825C95.6514 28.3052 96.2886 32.7444 96.7309 35.3687C97.3682 39.0235 98.2506 42.6042 98.8639 46.2579C99.4772 50.0108 100.041 53.5916 100.606 57.0002H10.6438C9.73579 57.0785 8.82157 57.0456 7.92152 56.9021C7.71746 56.6867 7.37546 49.6061 9.27014 48.6622C10.8148 47.8767 13.3662 48.3669 15.034 48.343C17.5602 48.3179 20.1104 48.3179 22.6366 48.294C41.2517 48.1709 59.8679 48.0238 78.459 47.61C82.8492 47.5108 87.5083 47.757 91.8745 47.1186C92.1323 47.0956 92.3871 47.0463 92.6349 46.9716C90.5989 46.2363 87.6315 46.6296 85.4974 46.5794C75.9077 46.3583 66.2929 46.3092 56.6793 46.2602C40.9576 46.2602 25.188 46.2853 9.4913 46.2853C5.7635 46.2853 5.71448 50.9935 5.71448 53.4673C5.56628 79.6873 6.67094 105.907 8.28974 132.074C8.73092 139.113 9.20174 146.128 9.76034 153.164C10.5458 163.098 10.8889 164.152 10.6438 153.973C10.0328 127.653 8.41172 101.385 7.97054 75.0931C7.92152 71.3892 7.82348 67.6614 7.84742 63.9576C7.84742 62.0196 7.8725 60.0816 7.8725 58.1436H100.777C101.145 60.4726 101.513 62.7537 101.881 64.9129C103.72 76.1989 105.217 85.0727 106.296 91.2047C108.454 103.492 108.969 104.771 107.301 92.1361C106.468 85.8091 105.168 76.6321 103.524 65.4031C102.691 59.7863 101.807 53.6793 100.851 47.1551C100.409 44.2124 99.9678 41.2693 99.5262 38.3258C99.3058 36.8537 99.085 35.3823 98.8639 33.9117C98.6678 32.562 97.6099 29.1773 99.6733 28.6142C102.789 28.1479 105.952 27.6566 109.165 27.1664C109.324 27.7868 109.71 28.3252 110.246 28.6753C110.783 29.0254 111.431 29.1618 112.063 29.0576L129.961 26.3342C130.597 26.2351 131.173 25.9051 131.581 25.4072C131.988 24.9093 132.198 24.2785 132.169 23.6358L133.567 23.4158C135.578 23.0966 137.614 22.6793 139.65 22.5038C139.98 22.4693 140.314 22.5045 140.629 22.607C140.945 22.7095 141.236 22.8771 141.483 23.0989C141.73 23.3207 141.928 23.5919 142.064 23.8948C142.2 24.1978 142.27 24.5258 142.272 24.8579C144.749 40.7506 147.299 56.9625 149.751 72.6592C150.488 77.2952 151.232 81.9388 151.983 86.59C152.325 88.8221 152.695 91.0542 153.038 93.2613C153.308 94.904 154.19 97.1373 153.234 98.6318C151.91 100.693 147.397 100.521 145.239 100.864C134.569 102.654 123.891 104.479 113.205 106.336C112.198 106.603 111.137 106.586 110.14 106.287C108.3 105.527 107.835 103.147 107.638 101.157C107.515 102.948 107.49 105.008 108.766 106.287C110.165 107.685 112.421 107.465 114.383 107.169C126.424 105.354 138.475 103.548 150.534 101.75C152.717 101.431 154.654 100.695 155.244 98.3651C155.446 97.4184 155.438 96.4387 155.219 95.4957C154.237 88.9715 153.208 82.0551 152.128 74.8446C151.295 69.3999 150.436 63.7866 149.553 58.0444H196.79C196.815 59.5401 196.84 61.0608 196.864 62.5326C197.33 84.5346 198.091 95.2996 198.556 86.4452C199.169 76.2422 198.924 65.9172 198.898 55.5672L198.907 55.5706Z" fill="#00231F"/>
<path d="M13.0712 54.0007C13.4677 53.9854 13.8428 53.8172 14.1178 53.5313C14.3929 53.2454 14.5466 52.8641 14.5466 52.4674C14.5466 52.0707 14.3929 51.6894 14.1178 51.4035C13.8428 51.1176 13.4677 50.9494 13.0712 50.9341C12.6748 50.9494 12.2997 51.1176 12.0247 51.4035C11.7496 51.6894 11.5959 52.0707 11.5959 52.4674C11.5959 52.8641 11.7496 53.2454 12.0247 53.5313C12.2997 53.8172 12.6748 53.9854 13.0712 54.0007Z" fill="#00231F"/>
<path d="M19.2995 53.9519C19.6959 53.9366 20.071 53.7683 20.3461 53.4825C20.6212 53.1966 20.7748 52.8153 20.7748 52.4186C20.7748 52.0218 20.6212 51.6405 20.3461 51.3547C20.071 51.0688 19.6959 50.9005 19.2995 50.8853C18.9031 50.9005 18.528 51.0688 18.2529 51.3547C17.9779 51.6405 17.8242 52.0218 17.8242 52.4186C17.8242 52.8153 17.9779 53.1966 18.2529 53.4825C18.528 53.7683 18.9031 53.9366 19.2995 53.9519Z" fill="#00231F"/>
<path d="M26.2898 53.9025C26.6862 53.8873 27.0613 53.719 27.3363 53.4331C27.6114 53.1473 27.7651 52.766 27.7651 52.3692C27.7651 51.9725 27.6114 51.5912 27.3363 51.3053C27.0613 51.0195 26.6862 50.8512 26.2898 50.8359C25.8933 50.8512 25.5182 51.0195 25.2432 51.3053C24.9681 51.5912 24.8145 51.9725 24.8145 52.3692C24.8145 52.766 24.9681 53.1473 25.2432 53.4331C25.5182 53.719 25.8933 53.8873 26.2898 53.9025Z" fill="#00231F"/>
<path d="M113.58 70.2853L110.514 50.0515C110.447 49.5777 110.569 49.0965 110.853 48.7116C111.137 48.3267 111.561 48.0689 112.034 47.9938L131.017 45.1244C131.491 45.0565 131.973 45.1778 132.358 45.4621C132.744 45.7465 133.002 46.171 133.077 46.644L136.193 67.2221C136.261 67.6964 136.139 68.1784 135.855 68.5638C135.57 68.9493 135.145 69.2073 134.672 69.2821L113.898 72.4433L113.58 70.2853Z" fill="#FFDD00"/>
<path d="M126.847 101.508C126.757 101.508 126.671 101.476 126.603 101.417C126.536 101.358 126.492 101.277 126.479 101.189C126.464 101.088 126.489 100.986 126.549 100.904C126.608 100.821 126.698 100.765 126.798 100.748L135.75 99.3979C135.849 99.3858 135.949 99.4125 136.029 99.4724C136.108 99.5324 136.162 99.6209 136.178 99.7193C136.193 99.8177 136.17 99.9185 136.113 100C136.056 100.082 135.97 100.139 135.872 100.158L126.921 101.508H126.847Z" fill="#00231F"/>
<path d="M190.224 28.1991C190.01 27.3847 190.018 26.528 190.246 25.7174C190.474 24.9068 190.914 24.1717 191.52 23.5878C191.52 23.5815 191.523 23.5754 191.527 23.5709C191.532 23.5664 191.538 23.5639 191.544 23.5639C189.729 22.0737 187.557 21.0841 185.241 20.6934H185.168C184.958 21.384 184.604 22.0227 184.131 22.568C183.658 23.1132 183.075 23.5527 182.421 23.858C181.363 24.2875 180.194 24.3593 179.091 24.0625C177.988 23.7657 177.013 23.1166 176.314 22.2141C175.333 22.7848 174.44 23.4956 173.664 24.3243C173.246 24.7863 172.86 25.2777 172.512 25.7949C173.087 26.1376 173.568 26.6183 173.911 27.1936C174.219 27.8086 174.4 28.4791 174.444 29.1654C174.488 29.8517 174.395 30.5399 174.168 31.1893C173.942 31.8387 173.587 32.4362 173.126 32.9462C172.665 33.4563 172.106 33.8687 171.482 34.159C171.288 34.2576 171.082 34.3315 170.869 34.3791C171.325 36.1787 172.19 37.849 173.395 39.2605C175.578 38.5765 178.276 39.1625 179.404 41.1244C179.787 41.8055 179.984 42.5754 179.974 43.3566C181.865 43.8018 183.829 43.8434 185.737 43.4785C185.677 43.3434 185.628 43.2039 185.59 43.0613C185.379 42.2427 185.388 41.3828 185.616 40.5688C185.844 39.7548 186.284 39.0156 186.89 38.4261C187.837 37.6007 189.028 37.1083 190.282 37.0241C191.535 36.9399 192.782 37.2685 193.831 37.9598C194.942 36.0405 195.494 33.8493 195.427 31.6328C194.304 31.7105 193.186 31.4164 192.246 30.7958C191.307 30.1753 190.597 29.2628 190.227 28.1991H190.224ZM185.196 37.6417C184.37 37.9761 183.485 38.1401 182.594 38.1238C181.703 38.1076 180.824 37.9114 180.011 37.5472C179.198 37.1829 178.467 36.6581 177.862 36.0041C177.257 35.3502 176.79 34.5807 176.489 33.7418C176.218 32.7144 176.227 31.633 176.516 30.6104C176.805 29.5878 177.363 28.6614 178.132 27.9278C180.854 25.3286 186.299 25.4996 188.261 28.8603C188.648 29.6358 188.875 30.481 188.93 31.3459C188.985 32.2108 188.866 33.078 188.581 33.8962C188.295 34.7144 187.848 35.467 187.267 36.1098C186.685 36.7525 185.981 37.2722 185.196 37.6383V37.6417Z" fill="#FFDD00"/>
<path d="M165.231 24.4953C165.094 23.9635 165.099 23.4051 165.245 22.8758C165.391 22.3464 165.674 21.8648 166.064 21.4788L166.089 21.4537C164.896 20.4781 163.466 19.8351 161.944 19.5898H161.895C161.761 20.0444 161.532 20.4653 161.224 20.8248C160.915 21.1842 160.533 21.474 160.104 21.6749C159.409 21.9628 158.637 22.013 157.91 21.8178C157.183 21.6226 156.54 21.1929 156.082 20.5953C155.431 20.9663 154.843 21.4384 154.34 21.9941C154.057 22.2883 153.803 22.6086 153.58 22.9506C153.96 23.1683 154.274 23.483 154.492 23.8626C154.698 24.2667 154.821 24.7083 154.852 25.1609C154.883 25.6135 154.822 26.0677 154.673 26.4962C154.523 26.9247 154.289 27.3185 153.984 27.6541C153.679 27.9896 153.309 28.26 152.896 28.4488C152.769 28.508 152.638 28.5572 152.504 28.5958C152.811 29.7786 153.381 30.8768 154.172 31.8084C154.873 31.5526 155.64 31.534 156.353 31.7556C157.066 31.9772 157.687 32.4266 158.121 33.035C158.365 33.4868 158.491 33.9931 158.488 34.5067C159.735 34.7972 161.029 34.8306 162.29 34.6048C162.242 34.5123 162.209 34.4131 162.192 34.3107C162.053 33.7787 162.056 33.2197 162.201 32.6894C162.347 32.1592 162.629 31.6765 163.019 31.2897C163.642 30.7488 164.423 30.4252 165.246 30.3676C166.068 30.3101 166.887 30.5216 167.579 30.9705C168.299 29.7097 168.664 28.2771 168.634 26.8254C167.893 26.8434 167.165 26.6281 166.554 26.2099C165.942 25.7918 165.477 25.192 165.225 24.4953H165.231ZM161.919 30.7003C161.377 30.9242 160.794 31.0348 160.207 31.0254C159.62 31.0159 159.041 30.8867 158.506 30.6455C157.971 30.4044 157.491 30.0564 157.095 29.623C156.699 29.1896 156.396 28.6798 156.204 28.125C156.02 27.4494 156.023 26.7363 156.213 26.0622C156.403 25.3881 156.773 24.7786 157.284 24.2992C159.075 22.5823 162.656 22.7032 163.93 24.8874C164.187 25.4 164.338 25.9586 164.375 26.5305C164.413 27.1024 164.336 27.676 164.148 28.2177C163.961 28.7593 163.667 29.258 163.284 29.6845C162.902 30.1111 162.437 30.4557 161.919 30.7003Z" fill="#FFDD00"/>
<path d="M69.9968 14.9547L84.7621 17.8491C84.8025 17.8516 84.843 17.8459 84.8811 17.8323C84.9192 17.8187 84.9542 17.7975 84.9839 17.77C85.0136 17.7425 85.0375 17.7093 85.054 17.6723C85.0706 17.6354 85.0794 17.5955 85.0801 17.555L85.4734 15.5931C85.4879 15.5544 85.4943 15.5131 85.4921 15.4719C85.4899 15.4306 85.4793 15.3903 85.4607 15.3533C85.4422 15.3164 85.4163 15.2837 85.3845 15.2573C85.3528 15.2309 85.3159 15.2113 85.2762 15.1998L70.5121 12.3122C70.4716 12.3095 70.431 12.3151 70.3927 12.3287C70.3544 12.3422 70.3193 12.3634 70.2895 12.3909C70.2596 12.4184 70.2357 12.4516 70.2191 12.4887C70.2025 12.5257 70.1936 12.5657 70.1929 12.6063L69.8007 14.5682C69.7793 14.6455 69.7876 14.728 69.8239 14.7994C69.8601 14.8709 69.9218 14.9263 69.9968 14.9547Z" fill="#00231F"/>
<path d="M93.9367 19.0503C93.8773 18.9189 93.7853 18.8048 93.6694 18.719C93.5534 18.6332 93.4174 18.5785 93.2744 18.5601L87.5846 17.4315C87.449 17.4101 87.3105 17.4162 87.1773 17.4493C87.0441 17.4824 86.9188 17.5419 86.809 17.6243C86.6992 17.7067 86.607 17.8102 86.538 17.9289C86.4689 18.0475 86.4244 18.1788 86.407 18.315L86.236 19.1484C86.236 19.1484 68.6013 15.6657 68.5523 15.6657C68.6554 15.2645 68.7127 14.853 68.7233 14.439C68.7048 14.2335 68.621 14.0393 68.4842 13.8849C68.3474 13.7304 68.1647 13.6238 67.9629 13.5806L63.1077 12.6241C62.8346 12.5863 62.5575 12.658 62.337 12.8234C62.1164 12.9889 61.9702 13.2348 61.9301 13.5076L57.6357 35.3603C57.6017 35.4926 57.5946 35.6304 57.6146 35.7655C57.6346 35.9006 57.6814 36.0304 57.7522 36.1472C57.823 36.264 57.9165 36.3655 58.027 36.4457C58.1376 36.5259 58.2631 36.5832 58.3961 36.6143C59.5737 36.8355 60.7262 37.0806 61.9027 37.2983C64.6262 37.8375 67.3747 38.3767 70.0947 38.916C73.2343 39.5293 76.3739 40.1426 79.5134 40.781C81.9165 41.2461 84.3197 41.7124 86.6954 42.2026C87.3736 42.4369 88.087 42.5526 88.8044 42.5446C89.6628 42.4215 89.811 41.5186 89.9091 40.8277C90.4973 36.7557 91.4777 32.7337 92.2871 28.6867C92.7785 26.2095 93.2687 23.7323 93.7589 21.2311C94.0116 20.5322 94.071 19.778 93.931 19.048L93.9367 19.0503ZM88.6368 41.3692L58.7688 35.4834L63.0313 13.7527L67.5913 14.6647L67.4192 15.4981C67.365 15.7849 67.4173 16.0816 67.5662 16.3326C67.6359 16.4391 67.726 16.5308 67.8312 16.6024C67.9365 16.674 68.0549 16.7241 68.1795 16.7498L86.1573 20.2838C86.2929 20.3052 86.4315 20.2992 86.5647 20.266C86.6979 20.2329 86.8231 20.1734 86.933 20.091C87.0428 20.0087 87.1349 19.9051 87.204 19.7864C87.273 19.6678 87.3176 19.5365 87.335 19.4003L87.506 18.567L92.8776 19.6215L88.6368 41.3692Z" fill="#00231F"/>
<g clip-path="url(#clip0_36_34319)">
<path d="M80.4993 27.8258L75.7237 26.9308L76.6188 22.1551C76.6805 21.8256 76.4632 21.508 76.1336 21.4463C75.8042 21.3845 75.4866 21.6019 75.4248 21.9313L74.5298 26.707L69.7541 25.812C69.4246 25.7502 69.107 25.9676 69.0453 26.297C68.9835 26.6266 69.2008 26.9442 69.5303 27.0059L74.306 27.901L73.411 32.6766C73.3492 33.0062 73.5665 33.3238 73.896 33.3855C74.2256 33.4473 74.5432 33.2299 74.6049 32.9004L75.5 28.1248L80.2756 29.0198C80.6051 29.0816 80.9227 28.8642 80.9845 28.5347C81.0462 28.2052 80.8289 27.8876 80.4993 27.8258Z" fill="#FFDD00"/>
</g>
<path d="M63.0059 116.346C63.8883 115.708 64.0844 115.12 63.6181 115.12C62.7943 115.296 62.0067 115.611 61.2891 116.052C60.4056 116.542 59.9644 116.964 60.4307 117.131C61.3555 117.187 62.2698 116.909 63.0059 116.346Z" fill="#00231F"/>
<path d="M56.2618 182.567C54.0484 181.727 51.7673 181.079 49.4435 180.629C47.7834 180.265 46.0903 180.074 44.391 180.059C43.4345 180.109 43.2145 180.354 44.0969 180.868C45.7898 181.85 50.9152 183.198 55.3544 184.425C57.5865 185.038 59.2053 185.553 60.1127 185.848C60.9711 186.167 61.3667 186.117 60.6827 185.209C59.4274 184.008 57.9186 183.103 56.2675 182.561L56.2618 182.567Z" fill="#00231F"/>
<path d="M48.1434 115.659C51.4049 111.416 54.1774 115.978 53.6371 114.457C51.9453 109.699 47.0889 113.158 46.7697 114.433C46.4505 115.709 47.8493 116.052 48.1434 115.659Z" fill="#00231F"/>
<path d="M57.2672 125.666C57.6156 125.723 57.9695 125.74 58.3217 125.715C58.9146 125.68 59.4887 125.494 59.9895 125.175C60.255 125 60.4403 124.727 60.5048 124.415C60.5425 124.176 60.5174 123.93 60.4319 123.704C60.3441 123.404 60.1617 122.771 60.0899 122.502C59.9428 121.962 59.7718 121.399 59.6247 120.906C59.4155 120.108 59.0683 119.353 58.5987 118.675C57.9364 117.89 57.4462 119.165 57.7654 121.593C57.8369 122.218 57.9682 122.833 58.1576 123.432C58.2039 123.591 58.2611 123.747 58.3286 123.899C58.1325 124.022 57.9125 124.169 57.7403 124.291C57.4646 124.466 57.2095 124.672 56.9799 124.904C56.6379 125.272 56.7599 125.542 57.2741 125.664L57.2672 125.666Z" fill="#00231F"/>
<path d="M53.4899 117.106C53.1058 116.967 52.6948 116.916 52.2883 116.959C51.7731 116.959 51.2338 117.008 50.7186 116.983C49.6641 116.91 48.9527 116.91 49.2958 117.352C49.6078 117.657 49.9986 117.869 50.4244 117.965C51.0266 118.12 51.6572 118.128 52.2633 117.989C53.4409 117.719 53.9562 117.352 53.4899 117.106Z" fill="#00231F"/>
<path d="M53.124 128.364C53.3201 129.39 57.0239 132.607 58.596 129.026C59.0862 127.898 56.6831 131.208 54.28 127.53C54.0588 127.188 52.9302 127.309 53.1263 128.364H53.124Z" fill="#00231F"/>
<path d="M104.456 155.661C103.794 163.632 100.188 171.064 96.1662 177.98C91.7648 185.905 86.238 193.15 79.7582 199.49C73.243 205.845 65.1512 210.349 56.3163 212.537C47.487 214.499 37.7993 213.395 30.1476 208.564C18.5196 201.256 10.6001 184.062 13.9596 170.523C15.675 164.006 19.8277 158.396 25.5603 154.852C27.2121 153.818 28.9427 152.916 30.7359 152.154C32.4527 153.38 40.1295 158.507 48.2474 158.507C49.375 158.51 50.5002 158.403 51.607 158.188C53.7756 157.726 55.8254 156.821 57.6277 155.529C59.43 154.238 60.9459 152.588 62.0802 150.683C62.8155 150.879 63.5519 151.075 64.2633 151.271C72.7985 153.478 77.1145 154.066 73.902 152.547C70.8114 151.099 61.8841 148.255 53.594 146.072C53.3651 142.72 52.8815 139.391 52.1474 136.114C52.4894 137.193 57.5179 136.139 58.3034 135.844C68.9726 131.945 66.8625 116.861 64.0911 108.473C64.0696 108.413 64.0433 108.356 64.0125 108.3C64.0364 108.3 64.0615 108.325 64.1105 108.349C68.5497 109.772 71.321 105.872 71.321 105.872C67.7208 103.151 64.4161 100.061 61.4612 96.6503C58.7149 93.3637 54.0056 89.1263 47.8735 89.783C48.1688 88.8014 49.0272 84.7795 43.1892 83.798C36.543 82.6945 24.8444 90.9116 30.387 96.135C30.9631 96.6558 31.6448 97.0459 32.3856 97.2787C33.1264 97.5115 33.9088 97.5814 34.6791 97.4837C32.1483 101.483 31.2945 107.274 31.5886 113.991C30.3465 113.75 29.2323 113.071 28.449 112.078C28.449 112.078 28.9643 116.638 32.349 118.332C34.2129 123.606 39.1183 128.022 40.8351 129.442C40.4544 136.483 39.1023 140.881 38.7261 148.01C38.7261 148.059 32.0788 149.824 31.4655 150.045C25.7637 152.026 20.6872 155.48 16.7504 160.056C15.1884 161.974 13.9082 164.105 12.9485 166.384C7.72156 179.452 13.93 199.768 27.1244 209.353C35.1693 215.191 45.8386 216.877 55.5993 214.921C65.36 212.965 74.2143 207.583 81.3519 200.64C88.4894 193.697 93.9831 185.237 98.5659 176.408C101.902 169.884 104.845 162.919 104.452 155.66L104.456 155.661ZM37.4015 113.844C36.7631 113.746 36.518 113.55 36.543 113.428C36.5921 113.28 36.9113 113.181 37.455 113.01C39.3299 112.42 41.0947 111.525 42.6785 110.361C44.9541 108.83 47.0811 107.089 49.0317 105.162C50.8215 103.396 52.2237 101.777 53.0537 100.993C53.8836 100.208 54.0797 100.477 53.6909 101.557C52.8596 103.466 51.7157 105.223 50.3063 106.756C49.3251 107.884 48.2412 108.919 47.0687 109.846C45.9394 110.732 44.7421 111.527 43.4879 112.225C42.4029 112.855 41.2407 113.342 40.0303 113.673C39.178 113.913 38.2846 113.971 37.4083 113.844H37.4015ZM40.2948 149.26C40.3449 149.26 41.2524 138.248 41.3744 137.144C41.8155 133.416 42.821 128.56 41.8646 124.832C41.4485 123.164 39.5355 122.6 38.5586 121.298C38.3269 120.993 38.1449 120.654 38.0193 120.292C37.357 118.453 39.4421 117.889 40.6926 117.251C44.6906 115.215 48.3443 112.027 52.0721 109.499C52.5384 109.181 58.7195 104.643 58.9121 104.84C59.9053 105.769 60.9805 106.606 62.1246 107.341C62.2717 107.782 62.3948 108.224 62.5168 108.709C62.738 109.568 62.9591 110.499 63.1552 111.456C61.2913 110.818 58.5952 110.941 58.2737 114.35C58.1267 115.895 59.6235 111.088 63.6203 113.884C63.8175 115.012 63.9623 116.141 64.0866 117.366C64.676 123.4 63.8175 132.45 56.5079 134.216C55.0702 134.5 53.5891 134.484 52.1581 134.168C50.7271 133.851 49.3773 133.241 48.1938 132.377C46.5994 131.188 45.2849 129.664 44.3429 127.913C43.6589 126.659 43.3374 125.927 43.1664 125.902C43.0194 125.878 43.0194 126.564 43.4606 128.036C44.1556 130.147 45.3997 132.036 47.0652 133.508C48.3739 134.643 49.914 135.48 51.5785 135.96C51.5295 136.156 51.5044 136.426 51.4554 136.769C51.2513 140.398 51.2924 144.036 51.5785 147.658C54.669 148.615 57.7596 149.547 60.849 150.406C59.7983 152.108 58.4133 153.578 56.7777 154.729C55.1421 155.88 53.2899 156.687 51.3334 157.101C43.3865 158.647 34.7783 153.52 31.9534 151.656C34.6455 150.577 37.4403 149.774 40.2948 149.26Z" fill="#00231F"/>
<path d="M157.138 205.032C153.888 204.934 150.674 204.313 147.621 203.192C143.182 201.644 139.259 198.893 136.291 195.247C134.55 193.143 133.03 190.866 131.754 188.452C131.07 187.198 130.552 185.902 129.988 184.602C129.522 183.234 128.982 181.88 128.589 180.457C126.872 174.792 125.573 168.829 124.42 163.068C123.291 157.28 122.433 152.228 121.772 148.033C121.088 143.839 120.618 140.529 120.275 138.223C120.104 137.07 119.981 136.188 119.883 135.549C119.856 135.17 119.798 134.792 119.711 134.422C119.638 134.348 119.54 134.569 119.442 135.231C119.369 136.112 119.352 136.997 119.393 137.879C119.802 146.133 120.753 154.35 122.237 162.48C123.186 168.197 124.43 173.862 125.965 179.452C126.779 182.42 127.837 185.316 129.129 188.109C130.481 190.857 132.143 193.441 134.084 195.811C135.882 198.008 137.988 199.932 140.338 201.525C142.342 202.86 144.531 203.893 146.836 204.591C150.032 205.624 153.391 206.056 156.745 205.866C157.999 205.864 159.238 205.587 160.375 205.056C159.298 204.965 158.216 204.957 157.138 205.032Z" fill="#00231F"/>
<path d="M128.32 115.586C128.491 115.586 128.516 115.291 128.662 114.874C128.702 114.669 128.818 114.485 128.987 114.362C129.157 114.239 129.367 114.186 129.574 114.212C129.681 114.234 129.782 114.279 129.87 114.342C129.959 114.405 130.034 114.486 130.09 114.58C130.335 115.07 130.629 115.635 130.874 116.223C131.888 118.918 132.524 121.741 132.763 124.611C132.931 126.76 133.226 128.898 133.645 131.012C133.964 132.19 134.259 132.312 134.504 131.11C134.816 129.008 134.93 126.881 134.846 124.758C134.836 121.614 134.167 118.508 132.883 115.638C132.549 114.976 132.172 114.337 131.755 113.725C131.535 113.382 131.229 113.102 130.868 112.912C130.507 112.723 130.103 112.631 129.695 112.646C129.437 112.651 129.183 112.71 128.949 112.819C128.715 112.928 128.506 113.084 128.336 113.278C128.165 113.471 128.036 113.698 127.958 113.944C127.879 114.189 127.852 114.449 127.879 114.705C127.929 115.344 128.198 115.589 128.321 115.589L128.32 115.586Z" fill="#00231F"/>
<path d="M128.147 130.007C128.724 131.264 129.215 132.559 129.619 133.883C130.036 135.251 130.281 136.336 130.531 136.924C130.781 137.512 131.07 137.636 131.365 137.022C131.741 135.952 131.834 134.803 131.635 133.687C131.437 132.089 130.884 130.555 130.016 129.198C129.645 128.569 129.154 128.018 128.569 127.58C128.177 127.277 127.696 127.113 127.201 127.113C126.859 127.138 126.686 127.286 126.662 127.433C126.638 127.58 126.735 127.727 126.858 127.899C127.416 128.517 127.856 129.232 128.158 130.008L128.147 130.007Z" fill="#00231F"/>
<path d="M126.382 139.277C127.044 140.48 127.486 141.46 127.83 142.001C128.174 142.541 128.491 142.638 128.688 141.976C128.887 140.863 128.769 139.717 128.346 138.67C127.817 137.217 127.018 135.877 125.992 134.721C123.981 132.464 122.51 131.851 122.829 133.053C123.123 134.307 125.036 136.879 126.384 139.282L126.382 139.277Z" fill="#00231F"/>
<path d="M220.932 157.574C216.049 154.878 210.467 153.717 204.915 154.242C203.982 154.291 202.02 154.856 201.285 154.046C200.5 152.936 200.041 151.627 199.96 150.269C199.331 146.218 198.97 142.129 198.881 138.03C198.857 137.442 198.833 136.902 198.808 136.411C202.069 135.7 204.964 134.426 205.405 126.994C205.92 118.68 213.106 114.51 211.929 109.849C210.777 105.289 207.661 112.597 202.781 102.325C197.9 92.0541 175.385 81.0542 172.54 99.496C170.602 111.98 201.894 113.624 201.894 113.624C200.543 115.102 199.643 116.936 199.3 118.908C198.956 120.881 199.184 122.911 199.956 124.758C201.255 123.532 203.536 124.145 202.751 127.211C202.359 128.731 199.901 129.983 198.68 130.522C198.463 130.62 198.276 130.774 198.138 130.967C198 131.161 197.917 131.389 197.896 131.626L197.822 132.631C197.822 132.68 197.798 132.729 197.798 132.803C197.315 135.803 197.102 138.84 197.159 141.878C197.119 144.816 197.324 147.752 197.773 150.656C197.899 151.383 198.062 152.103 198.263 152.814C198.778 154.654 199.859 156.591 201.992 156.542C202.887 156.504 203.78 156.414 204.665 156.273C200.985 159.289 197.208 160.833 193.31 160.785C189.197 160.617 185.273 159.011 182.223 156.247C184.186 156.043 186.162 155.986 188.134 156.076L188.085 155.291C187.276 144.819 186.515 140.306 186.27 145.284C186.172 147.197 186.172 150.313 186.245 154.138C184.576 154.066 182.904 154.115 181.243 154.286C175.648 154.906 170.266 156.78 165.497 159.77C160.728 162.759 156.695 166.787 153.699 171.552C153.16 172.41 152.694 173.269 152.227 174.152C151.854 174.77 151.573 175.439 151.394 176.138C151.075 175.574 150.732 174.986 150.34 174.323C148.352 170.988 146.218 167.726 144.478 164.243C142.689 160.565 141.402 156.664 140.652 152.643C140.406 151.44 140.186 150.215 139.989 149.013C140.16 148.694 140.331 148.375 140.48 148.055C141.246 146.556 141.87 144.987 142.344 143.371C142.888 141.905 142.998 140.313 142.663 138.785C142.444 138.229 142.114 137.723 141.695 137.297C141.275 136.872 140.773 136.536 140.22 136.31C139.416 135.937 138.518 135.817 137.644 135.968C136.934 136.115 136.517 136.605 136.517 136.95C136.492 137.292 136.615 137.464 136.664 137.489C136.737 137.513 136.835 137.391 136.884 137.195C136.964 137.082 137.071 136.991 137.195 136.931C137.32 136.871 137.458 136.844 137.595 136.853C138.36 136.836 139.112 137.05 139.755 137.465C140.205 137.712 140.582 138.074 140.849 138.513C141.115 138.952 141.262 139.454 141.274 139.967C141.169 141.265 140.837 142.535 140.294 143.719C139.665 145.27 138.918 146.77 138.062 148.208L137.841 148.575L137.89 148.967C138.111 150.439 138.332 151.985 138.65 153.527C140.294 161.621 144.096 168.119 148.853 174.767C150.325 176.803 151.475 178.422 152.312 179.525C153.954 181.732 154.397 181.83 153.17 179.28C152.778 178.471 152.214 177.416 151.526 176.215C152.062 175.819 152.519 175.329 152.876 174.767C158.099 168.041 163.691 162.308 171.686 158.997C174.646 157.775 177.742 156.91 180.907 156.422C180.933 156.471 180.933 156.52 180.956 156.544C182.84 158.451 185.129 159.909 187.653 160.812C190.131 161.711 192.785 162.019 195.403 161.712C198.022 161.406 200.532 160.493 202.736 159.046C204.107 158.184 205.396 157.199 206.587 156.103C211.197 156.029 215.788 156.717 220.175 158.139L220.395 158.212C221.523 158.554 222.161 158.752 222.284 158.629C222.406 158.58 221.99 158.212 220.935 157.574H220.932ZM193.534 109.43C190.585 110.039 187.524 109.802 184.705 108.746C180.12 107.222 174.33 103.249 175.56 97.5842C175.585 97.5112 175.585 97.4622 175.609 97.3881C175.805 96.7041 176.001 96.4317 176.124 96.4761C176.197 96.5012 176.247 96.6232 176.296 96.7953C176.503 97.9605 176.798 99.1083 177.179 100.229C179.288 105.183 185.444 107.022 190.276 107.955C191.38 108.175 192.508 108.347 193.636 108.543C194.89 108.788 194.813 109.113 193.538 109.427L193.534 109.43Z" fill="#00231F"/>
<path d="M188.776 123.041C188.507 123.63 188.556 124.243 188.923 124.409C189.29 124.576 189.782 124.213 190.052 123.624C190.322 123.034 190.273 122.422 189.905 122.256C189.537 122.089 189.046 122.453 188.776 123.041Z" fill="#00231F"/>
<path d="M182.178 119.682C182.472 119.068 182.399 118.428 182.031 118.259C181.663 118.09 181.147 118.455 180.853 119.068C180.559 119.682 180.633 120.322 181 120.491C181.367 120.66 181.884 120.294 182.178 119.682Z" fill="#00231F"/>
<path d="M180.142 113.256C179.211 114.016 180.093 115.045 180.51 114.923C185.298 113.648 184.924 118.553 185.318 117.13C186.666 112.716 181.099 112.495 180.142 113.256Z" fill="#00231F"/>
<path d="M193.411 122.845C193.5 123.007 193.637 123.138 193.804 123.219C193.97 123.299 194.157 123.327 194.34 123.297C194.522 123.268 194.691 123.183 194.824 123.053C194.956 122.924 195.045 122.757 195.079 122.575C195.421 121.422 193.117 116.346 189.561 119.19C188.407 120.102 192.753 117.936 193.411 122.845Z" fill="#00231F"/>
<path d="M183.085 126.965C183.869 127.307 184.188 125.939 183.918 125.691C183.648 125.442 182.226 124.586 182.177 124.415C182.128 124.244 184.9 121.152 184.606 120.417C184.606 120.417 181.098 123.213 180.853 123.998C180.583 124.758 182.299 126.62 183.085 126.962V126.965Z" fill="#00231F"/>
<path d="M185.956 131.602C186.048 131.518 186.11 131.407 186.132 131.285C186.155 131.163 186.138 131.036 186.082 130.925C186.027 130.814 185.936 130.724 185.825 130.669C185.714 130.614 185.588 130.597 185.466 130.62C182.326 132.337 181.909 129.173 181.811 130.13C181.517 133.195 185.417 132.263 185.956 131.602Z" fill="#00231F"/>
<path d="M178.794 110.435C177.903 111.866 177.148 113.377 176.538 114.948C175.427 118.01 174.701 121.198 174.378 124.439C173.879 127.361 174.114 130.362 175.062 133.17C176.24 135.845 178.289 138.041 180.876 139.401C182.744 140.462 184.859 141.012 187.007 140.997C188.708 141.012 190.37 140.498 191.766 139.526C192.133 139.28 192.464 138.983 192.746 138.642C192.943 138.397 193.041 138.25 193.016 138.176C192.991 138.102 192.844 138.127 192.599 138.201C192.354 138.275 192.036 138.52 191.521 138.691C190.173 139.19 188.74 139.416 187.304 139.358C185.869 139.299 184.459 138.956 183.156 138.349C181.628 137.692 180.26 136.712 179.147 135.476C178.033 134.239 177.201 132.777 176.706 131.188C175.873 127.925 176.388 124.492 176.878 121.23C177.402 117.774 178.247 114.374 179.405 111.076C179.405 111.052 179.429 111.003 179.429 110.978C179.822 109.899 180.018 109.286 179.895 109.163C179.846 109.065 179.454 109.433 178.791 110.439L178.794 110.435Z" fill="#00231F"/>
<defs>
<clipPath id="clip0_36_34319">
<rect width="12.9569" height="12.9569" fill="white" transform="translate(69.4429 19.7803) rotate(10.6151)"/>
</clipPath>
</defs>
</svg>
