<svg width="78" height="78" viewBox="0 0 78 78" fill="none" xmlns="http://www.w3.org/2000/svg">
<path d="M30.3834 49.2447C30.5134 49.134 30.3721 48.958 30.2286 48.982C29.6829 49.0741 28.2904 49.8233 27.8391 50.1C27.6967 50.1871 27.785 50.4414 27.9599 50.3849C28.8089 50.0994 29.6221 49.7168 30.3834 49.2447Z" fill="#FFDD00"/>
<path d="M31.6217 48.5866C32.9376 48.0603 33.4829 48.0359 33.8687 47.7975C33.899 47.7782 33.9223 47.7497 33.9351 47.7161C33.9478 47.6825 33.9494 47.6457 33.9395 47.6112C33.9296 47.5767 33.9088 47.5462 33.8802 47.5245C33.8516 47.5028 33.8168 47.4909 33.7809 47.4906C33.2004 47.4824 32.0111 48.025 31.501 48.3033C31.3458 48.3853 31.4572 48.6516 31.6217 48.5866Z" fill="#FFDD00"/>
<path d="M51.2078 48.9157C51.5511 49.1518 51.9532 49.2993 52.3259 49.5075C52.6986 49.7157 53.0504 49.9657 53.4328 50.1542C53.4663 50.1717 53.5049 50.1766 53.5418 50.1681C53.5786 50.1597 53.6112 50.1383 53.6337 50.1079C53.6562 50.0775 53.6671 50.0401 53.6645 50.0024C53.6618 49.9647 53.6458 49.9292 53.6193 49.9022C52.9796 49.2652 52.1617 48.8372 51.2736 48.6746C51.1308 48.6549 51.1103 48.8484 51.2078 48.9157Z" fill="#FFDD00"/>
<path d="M54.5949 50.9429C54.8983 51.167 55.2106 51.3787 55.5156 51.5896C55.7962 51.8242 56.0889 52.0438 56.3926 52.2475C56.4232 52.2643 56.4584 52.2707 56.4929 52.2657C56.5275 52.2608 56.5595 52.2448 56.5842 52.2201C56.6088 52.1954 56.6249 52.1634 56.6298 52.1289C56.6348 52.0943 56.6284 52.0591 56.6116 52.0285C56.3701 51.5857 55.4556 51.042 54.7814 50.6147C54.586 50.4905 54.4064 50.8036 54.5949 50.9429Z" fill="#FFDD00"/>
<path d="M49.8269 52.4005C48.5839 51.986 47.1751 52.8715 47.6895 54.0647C48.0869 54.9877 49.2921 55.1529 49.2019 55.8728C49.1591 56.1378 49.0231 56.3788 48.8184 56.5524C47.8404 57.4266 46.4839 56.6623 46.4727 55.4126C46.47 55.0728 45.9224 54.9738 45.8589 55.3248C45.7977 55.6302 45.8084 55.9458 45.8902 56.2463C45.972 56.5469 46.1227 56.8244 46.3303 57.0567C46.0783 57.4622 45.9092 57.9309 45.6836 58.3501C45.5605 58.5788 45.869 58.8419 46.0563 58.6461C46.3839 58.3064 46.6776 57.9356 46.9333 57.5389C49.1253 58.7193 51.3289 55.925 49.4214 54.437C49.0583 54.1541 47.8973 53.4694 48.9062 53.1548C49.2502 53.067 49.6147 53.1147 49.9245 53.288C50.2342 53.4614 50.4655 53.7472 50.5704 54.0863C50.6261 54.3054 51.0004 54.2617 50.976 54.0318C50.9407 53.5917 50.7683 53.1739 50.4829 52.8371C50.7842 52.4124 51.0587 51.9695 51.3049 51.5108C51.4148 51.3138 51.1706 51.0142 50.9651 51.171C50.5199 51.5145 50.1351 51.9301 49.8269 52.4005Z" fill="#FFDD00"/>
<path d="M33.5507 52.0277C33.0581 53.2224 32.6397 54.4272 32.2577 55.6776C31.9056 56.8278 31.3974 58.0442 31.2712 59.2505C31.2721 59.2992 31.2889 59.3463 31.319 59.3847C31.3491 59.423 31.3909 59.4505 31.438 59.4629C31.4851 59.4753 31.535 59.4719 31.5801 59.4533C31.6252 59.4348 31.6629 59.402 31.6877 59.36C32.2159 58.2706 32.4272 56.9799 32.7837 55.82C33.1614 54.5905 33.5713 53.3725 33.8673 52.1155C33.8739 52.0753 33.8653 52.0342 33.8434 51.9999C33.8215 51.9656 33.7876 51.9406 33.7484 51.9297C33.7092 51.9188 33.6673 51.9228 33.6308 51.9409C33.5944 51.959 33.5658 51.9899 33.5507 52.0277Z" fill="#FFDD00"/>
<path d="M33.5615 57.4974C34.1006 58.0106 34.9203 57.6619 35.3151 57.1468C35.5288 56.8993 35.6561 56.589 35.6779 56.2627C35.6997 55.9365 35.6147 55.612 35.4358 55.3383C34.3499 53.9234 32.4373 56.4273 33.5615 57.4974ZM34.8774 56.8395C34.6707 57.0926 34.1986 57.3867 33.9129 57.0914C33.1776 56.3325 34.5763 54.7264 35.0856 55.7981C35.1484 55.9743 35.1621 56.1644 35.1253 56.3479C35.0885 56.5314 35.0025 56.7015 34.8766 56.8399L34.8774 56.8395Z" fill="#FFDD00"/>
<path d="M31.337 54.0439C30.2278 52.6158 28.3496 55.1437 29.4627 56.203C30.0018 56.7162 30.8172 56.3648 31.2162 55.8524C31.4322 55.606 31.561 55.2954 31.5828 54.9686C31.6046 54.6417 31.5182 54.3167 31.337 54.0439ZM29.8133 55.7854C29.078 55.0265 30.4836 53.4169 30.9859 54.492C31.3447 55.2626 30.2738 56.2634 29.8133 55.7854Z" fill="#FFDD00"/>
<path d="M49.5088 21.6244C49.2766 19.5732 48.609 17.6204 47.9197 15.695C47.8764 15.5742 47.6875 15.6176 47.7223 15.7499C48.7348 19.3944 50.1017 23.5649 48.15 27.1377C46.3531 30.4273 42.3448 31.0957 39.0417 29.9215C38.9209 29.8786 38.8334 30.0763 38.9542 30.1297C40.4292 30.7847 42.0635 30.9943 43.656 30.7327C43.9655 32.0625 44.3423 33.3758 44.7849 34.6674C44.8015 34.7159 44.836 34.7561 44.8814 34.7798C44.9267 34.8034 44.9795 34.8088 45.0287 34.7948C45.0779 34.7807 45.1198 34.7483 45.1458 34.7042C45.1718 34.6602 45.1799 34.6078 45.1684 34.5579C45.0349 33.9 44.1053 31.1348 43.9079 30.6777C48.1674 29.8259 49.9879 25.8788 49.5088 21.6244Z" fill="#191919"/>
<path d="M43.8427 23.2891C43.7552 23.3665 43.8206 23.5522 43.941 23.5302C44.4441 23.4756 45.352 23.2113 45.5525 22.6865C45.7035 22.291 45.3122 21.7433 45.1686 21.3819C44.9074 20.7239 44.5985 20.0718 44.3137 19.4201C44.2568 19.2897 44.0428 19.3868 44.0838 19.5188C44.3191 20.2478 44.5713 20.9714 44.84 21.6888C44.8969 21.8416 45.1798 22.3246 45.1357 22.467C45.0374 22.8947 44.1508 23.0166 43.8427 23.2891Z" fill="#191919"/>
<path d="M40.8394 25.9204C40.7287 25.8674 40.5642 25.987 40.6528 26.1069C41.5429 27.3086 43.4478 27.7839 44.5767 26.6329C44.6541 26.5555 44.5554 26.4034 44.456 26.4684C42.7106 27.6112 41.697 26.3341 40.8394 25.9204Z" fill="#191919"/>
<path d="M40.3788 19.2118C40.3305 19.1853 40.2739 19.1785 40.2207 19.193C40.1676 19.2074 40.1221 19.2419 40.094 19.2892C39.8189 19.695 39.5732 20.1198 39.3586 20.5606C39.3511 20.593 39.3533 20.627 39.3648 20.6583C39.3764 20.6895 39.3968 20.7168 39.4236 20.7366C39.4504 20.7564 39.4824 20.7679 39.5157 20.7698C39.549 20.7717 39.5821 20.7638 39.611 20.7471C39.9498 20.4365 40.2154 20.0547 40.3889 19.629C40.7587 19.7696 41.1204 19.9306 41.4725 20.1112C41.594 20.1646 41.7028 19.9688 41.6041 19.8922C41.226 19.6145 40.8143 19.3859 40.3788 19.2118Z" fill="#191919"/>
<path d="M46.1441 18.1829C45.9033 18.5336 45.7457 18.9347 45.6836 19.3555C45.6842 19.387 45.6941 19.4176 45.712 19.4435C45.7299 19.4693 45.7551 19.4894 45.7843 19.5011C45.8135 19.5127 45.8456 19.5156 45.8764 19.5092C45.9072 19.5028 45.9354 19.4874 45.9576 19.4651C46.1716 19.1923 46.3282 18.8792 46.4181 18.5444C46.728 18.7035 47.0464 18.8456 47.3717 18.9701C47.4095 18.9795 47.4493 18.9751 47.484 18.9575C47.5187 18.9399 47.5459 18.9103 47.5605 18.8743C47.5752 18.8383 47.5763 18.7982 47.5637 18.7614C47.5512 18.7246 47.5257 18.6935 47.4921 18.674C47.1391 18.4805 46.7827 18.2734 46.4181 18.1043C46.3711 18.0799 46.3165 18.0745 46.2655 18.0891C46.2146 18.1037 46.1711 18.1373 46.1441 18.1829Z" fill="#191919"/>
<path d="M38.0325 19.1798C37.9972 19.3106 38.1834 19.441 38.2736 19.3222C38.5341 18.9139 38.86 18.5511 39.238 18.2482C39.4793 18.0985 39.7496 18.0015 40.0311 17.9637C40.3126 17.9259 40.5989 17.9481 40.8712 18.0288C40.9699 18.0501 41.0558 17.9216 40.9699 17.8535C39.8847 16.9939 38.3332 18.0567 38.0325 19.1798Z" fill="#191919"/>
<path d="M44.6205 16.3301C44.5311 16.4268 44.6205 16.6269 44.7629 16.5712C45.5478 16.2616 45.7378 16.152 46.7797 16.4284C46.9008 16.4605 47.0215 16.296 46.9112 16.2093C46.5753 15.9592 46.1624 15.8343 45.7441 15.8564C45.3258 15.8784 44.9284 16.046 44.6205 16.3301Z" fill="#191919"/>
<path d="M28.8376 69.3901C28.915 69.5655 29.1356 69.4451 29.1554 69.3023C29.2007 68.6159 29.4278 67.9539 29.8133 67.3843C30.1727 66.8266 30.6825 66.3821 31.2839 66.1021C31.3112 66.0932 31.334 66.0742 31.3479 66.0491C31.3618 66.024 31.3656 65.9946 31.3586 65.9668C31.3517 65.939 31.3344 65.9148 31.3104 65.8992C31.2863 65.8836 31.2572 65.8777 31.229 65.8827C30.5863 66.0609 30.0177 66.4407 29.607 66.9663C27.5095 66.6658 25.439 66.1999 23.4148 65.573C21.6501 65.0583 19.6786 64.5138 18.6797 62.8222C18.6147 62.7119 18.4634 62.8098 18.5153 62.9209C19.3141 64.6237 21.1357 65.3521 22.8227 65.8691C24.6153 66.4183 27.5222 67.3011 29.3771 67.2624C28.9472 67.8556 28.5307 68.6885 28.8376 69.3901Z" fill="#191919"/>
<path d="M63.9548 39.2806C63.9554 39.2453 63.9452 39.2106 63.9257 39.1813C63.9061 39.1519 63.878 39.1291 63.8452 39.1161C61.9272 38.0325 59.9577 36.8916 57.8496 36.2135C57.8259 36.2077 57.801 36.2106 57.7792 36.2216C57.7574 36.2326 57.7403 36.251 57.7309 36.2736C57.7216 36.2961 57.7206 36.3213 57.7282 36.3445C57.7358 36.3677 57.7514 36.3874 57.7722 36.4001C59.6907 37.4396 61.6424 38.3947 63.5484 39.447C63.2326 40.1843 63.2775 40.9022 62.1455 42.7021C61.4429 43.8336 60.5705 44.8502 59.5587 45.7162C59.4163 45.8369 59.6245 46.0343 59.7561 45.9136C60.812 45.0535 61.7262 44.0327 62.4652 42.8887C62.9354 42.1499 64.0039 40.1498 63.9548 39.2806Z" fill="#191919"/>
<path d="M55.0223 35.0175C52.3529 34.1962 49.5716 33.7969 46.7789 33.834C46.7433 33.84 46.7104 33.8569 46.6849 33.8824C46.6594 33.908 46.6425 33.9408 46.6365 33.9765C46.5591 36.9495 43.0303 37.7386 40.5755 37.3411C38.4934 37.004 37.0262 35.6754 35.2715 34.6549C35.2493 34.6188 35.2154 34.5915 35.1755 34.5774C35.1356 34.5633 35.092 34.5633 35.0521 34.5775C31.627 35.6414 28.8491 36.7885 27.7306 37.4274C27.5982 37.5029 27.6869 37.7343 27.8293 37.6685C32.288 35.9599 30.6115 36.3097 35.0633 35.0051C35.9511 35.5311 36.7507 36.1786 37.6497 36.6821C40.591 38.328 43.6097 37.9925 45.3551 36.8574C45.8231 36.557 46.2033 36.1383 46.4574 35.6437C46.7114 35.149 46.8302 34.596 46.8018 34.0407C49.5418 34.2706 52.2586 34.5825 54.8903 35.4339C54.9446 35.4484 55.0024 35.4413 55.0517 35.4143C55.101 35.3872 55.1379 35.3423 55.1549 35.2887C55.1719 35.2351 55.1676 35.177 55.1429 35.1265C55.1182 35.076 55.075 35.037 55.0223 35.0175Z" fill="#191919"/>
<path d="M20.0473 57.7712C20.8222 58.5508 21.666 59.2588 22.5683 59.8866C22.7231 59.9845 22.8868 59.7655 22.7656 59.6343C21.6251 58.402 18.5205 56.2382 14.4027 50.9319C14.0962 50.5368 13.6554 50.132 13.59 49.6277C13.5335 49.1784 13.9205 48.7519 14.1705 48.3892C16.6148 44.9571 19.7049 42.0347 23.268 39.7856C23.4429 39.6753 23.2815 39.3947 23.1035 39.5116C19.9178 41.5348 17.086 44.0673 14.7208 47.008C14.164 47.6419 13.6754 48.3325 13.263 49.0685C12.9123 49.8038 13.4623 50.3932 13.8876 50.954C15.7424 53.3981 17.8031 55.6789 20.0473 57.7712Z" fill="#191919"/>
<path d="M71.3422 55.2054C70.3435 50.4532 68.0527 46.0688 64.722 42.535C64.5692 42.3705 64.3145 42.6124 64.4701 42.7873C67.6382 46.3657 69.9043 50.6501 71.0791 55.2828C71.122 55.448 71.3744 55.3714 71.3422 55.2054Z" fill="#191919"/>
<path d="M42.5604 69.9911C39.1466 75.0954 30.6478 76.0571 24.5307 75.5045C21.0232 75.1875 17.4384 74.3883 14.2714 72.7954C10.8727 71.0875 7.2495 68.0932 7.14732 63.9831C7.03896 59.618 10.7163 55.0451 13.5152 51.6305C13.6042 51.5221 13.4521 51.3696 13.3604 51.4757C10.7105 54.6256 7.31413 58.4473 6.72935 62.6774C6.13916 66.9554 9.10599 70.3363 12.5612 72.4262C21.2102 77.6551 38.4841 77.5177 42.7791 70.1355C42.7983 70.1065 42.8051 70.071 42.7981 70.037C42.7912 70.003 42.771 69.9731 42.742 69.9539C42.713 69.9348 42.6775 69.928 42.6435 69.9349C42.6095 69.9419 42.5796 69.9621 42.5604 69.9911Z" fill="#191919"/>
<path d="M43.5575 66.2542C42.4885 67.356 41.5837 68.608 40.5105 69.7176C39.4193 70.7918 38.2507 71.7846 37.0143 72.6879C36.9152 72.7653 37.0359 72.8961 37.1346 72.8524C38.4842 72.0827 39.7077 71.1106 40.7625 69.9699C41.8831 68.8897 42.8794 67.6875 43.7328 66.3858C43.7477 66.3624 43.7533 66.3343 43.7483 66.307C43.7434 66.2797 43.7283 66.2553 43.7061 66.2387C43.684 66.222 43.6563 66.2144 43.6288 66.2173C43.6012 66.2201 43.5757 66.2333 43.5575 66.2542Z" fill="#191919"/>
<path d="M35.9072 71.1661C35.8209 71.2334 35.9292 71.3743 36.0279 71.3209C39.2281 69.171 41.8331 66.0711 42.8122 64.1201C42.8312 64.0867 42.8361 64.0472 42.8258 64.0101C42.8156 63.9731 42.7911 63.9417 42.7577 63.9228C42.7243 63.9038 42.6847 63.8989 42.6477 63.9092C42.6107 63.9194 42.5792 63.9439 42.5603 63.9773C40.6953 66.5239 39.5729 68.3049 35.9072 71.1661Z" fill="#191919"/>
<path d="M40.4775 63.1523C39.7933 63.7939 39.6548 64.3613 37.8691 66.0351C36.863 66.9316 35.8091 67.773 34.7122 68.5557C34.6909 68.5698 34.6756 68.5914 34.6696 68.6162C34.6636 68.6411 34.6672 68.6673 34.6797 68.6896C34.6922 68.7119 34.7127 68.7286 34.7371 68.7363C34.7614 68.7441 34.7878 68.7424 34.8109 68.7314C36.584 67.7413 38.1744 66.4549 39.5131 64.9279C39.9894 64.4616 40.4021 63.9346 40.7407 63.3605C40.7605 63.3252 40.7671 63.2841 40.7592 63.2444C40.7514 63.2047 40.7297 63.1692 40.698 63.1441C40.6663 63.119 40.6267 63.106 40.5863 63.1075C40.5458 63.109 40.5073 63.1249 40.4775 63.1523Z" fill="#191919"/>
<path d="M21.8885 45.1774C23.0348 42.8015 26.5891 35.4185 26.1959 32.793C26.0237 31.6417 24.8901 30.6966 23.7519 31.3464C22.7198 31.9354 22.4446 34.1441 23.8723 34.4262C24.0476 34.4606 24.2113 34.2408 24.0588 34.1085C23.4423 33.5744 23.1145 32.6053 23.8177 31.9602C24.7036 31.1474 25.6165 32.1243 25.6916 33.0341C25.8035 34.3821 25.2214 35.9061 24.8259 37.1751C23.9837 39.8842 22.8134 42.4606 21.7023 45.0667C21.6466 45.1987 21.8246 45.3097 21.8885 45.1774Z" fill="#FFDD00"/>
<path d="M25.3853 41.0998C26.1514 38.7 27.0739 36.3529 28.147 34.0736C28.6265 33.0419 29.0723 31.8437 29.7581 30.928C29.9648 30.6525 30.2612 30.3374 30.6459 30.4346C30.8165 30.4913 30.9706 30.5889 31.0948 30.7188C31.2189 30.8487 31.3095 31.007 31.3584 31.18C31.5701 31.8255 31.2276 32.8337 30.394 32.5063C30.142 32.4072 29.9996 32.7907 30.2187 32.9227C30.4501 33.0472 30.7187 33.0836 30.9749 33.0251C31.2311 32.9667 31.4574 32.8174 31.6119 32.6049C31.7724 32.3681 31.8741 32.0963 31.9083 31.8122C31.9426 31.5281 31.9085 31.24 31.8089 30.9718C31.7199 30.7032 31.558 30.4646 31.3413 30.2827C31.1246 30.1008 30.8616 29.9827 30.5817 29.9415C29.9892 29.9028 29.5422 30.4137 29.2659 30.8731C28.3954 32.4215 27.644 34.034 27.0181 35.6964C26.3083 37.4403 25.7409 39.2344 25.1767 41.0232C25.1703 41.0372 25.1668 41.0523 25.1665 41.0677C25.1662 41.0831 25.1691 41.0983 25.175 41.1125C25.1809 41.1267 25.1897 41.1396 25.2008 41.1502C25.2119 41.1608 25.2251 41.1691 25.2395 41.1744C25.254 41.1797 25.2693 41.1819 25.2847 41.181C25.3 41.1801 25.315 41.176 25.3287 41.169C25.3424 41.162 25.3545 41.1522 25.3642 41.1403C25.374 41.1284 25.3811 41.1146 25.3853 41.0998Z" fill="#FFDD00"/>
<path d="M52.6546 41.8152C56.3099 35.2143 58.2573 32.028 59.6696 28.3777C60.1189 27.2167 61.336 25.1431 59.8449 24.2235C58.7055 23.5211 57.0483 25.1679 57.9485 26.2403C58.1234 26.4489 58.4443 26.1845 58.3212 25.9554C57.7945 24.9744 59.4954 23.9271 59.9765 25.1771C60.2861 25.9771 59.625 27.0185 59.3514 27.7531C57.606 32.4359 55.1914 36.0738 52.4239 41.6855C52.3488 41.8361 52.569 41.97 52.6546 41.8152Z" fill="#FFDD00"/>
<path d="M55.8553 39.0836C57.2346 36.1899 58.9699 33.451 60.6012 30.699C61.3802 29.3831 62.131 28.0437 62.9356 26.7421C63.2956 26.1616 64.3146 24.9905 65.0619 25.8106C65.4226 26.2061 65.214 26.9279 65.029 27.3559C64.5514 28.4616 63.7499 28.4338 63.6702 27.8494C63.6801 27.8054 63.6728 27.7592 63.6499 27.7203C63.6269 27.6815 63.59 27.6528 63.5467 27.6402C63.5034 27.6277 63.4569 27.6321 63.4167 27.6526C63.3765 27.6731 63.3456 27.7082 63.3304 27.7507C62.9585 28.7914 64.736 29.5488 65.5662 27.4438C65.8262 26.7859 65.9478 25.8462 65.3359 25.3284C65.0991 25.1558 64.8191 25.0521 64.527 25.0289C64.2349 25.0057 63.9421 25.0638 63.681 25.1968C62.9689 25.537 62.5649 26.2832 62.1903 26.9287C59.2559 31.9842 57.3913 34.9487 55.6142 38.9191C55.5484 39.1052 55.7771 39.2473 55.8553 39.0836Z" fill="#FFDD00"/>
<path d="M53.6959 5.40336C52.7532 8.16546 49.5309 8.57105 45.7165 8.4174C43.6232 6.37863 39.0823 4.75821 36.4878 5.47998C36.3775 5.51056 36.2579 5.54578 36.1372 5.57867C36.1834 5.96482 36.1402 6.35643 36.011 6.72323C35.8817 7.09002 35.6699 7.4222 35.3918 7.69408C35.3144 7.76142 35.1619 7.69408 35.2056 7.58455C35.3979 7.13905 35.5483 6.67665 35.655 6.20331C35.9259 4.7048 34.7528 3.63936 33.3751 2.99111C29.9117 1.36992 26.6128 4.32901 26.9851 7.55166C27.0944 8.5265 27.4081 9.46731 27.9058 10.3126C28.2339 10.7289 28.6814 11.0349 29.1884 11.1896C29.8944 11.3416 30.6216 11.3678 31.3367 11.267C31.4683 11.2561 31.4915 11.4643 31.3696 11.4992C30.5472 11.6745 29.7143 11.8281 28.8927 11.5541C28.4064 11.3939 27.9765 11.0971 27.6543 10.6992C26.328 11.565 24.0373 12.4748 21.6587 10.7979C21.6587 10.7979 24.5415 14.7435 28.3776 12.8255C27.491 14.7788 27.0887 16.9171 27.2046 19.0591C27.5552 26.6108 34.4932 28.5408 35.677 28.8141C36.1353 30.6506 36.4541 32.5191 36.6306 34.4037C36.6631 34.6998 37.1237 34.6998 37.0908 34.4037C36.8489 32.0011 36.1337 28.1983 35.3438 26.1669C35.6442 26.1561 35.9396 26.0872 36.2138 25.9641C36.4441 25.8654 36.2796 25.461 36.0385 25.5589C35.7001 25.6867 35.3368 25.7349 34.9768 25.6997C34.6167 25.6646 34.2696 25.547 33.9623 25.3562C33.655 25.1654 33.3957 24.9064 33.2046 24.5992C33.0134 24.2921 32.8955 23.9452 32.86 23.5852C32.7942 22.9056 33.0682 22.0944 33.8794 22.2589C34.3973 22.3963 34.8844 22.6306 35.3152 22.9493C35.4468 23.0267 35.5671 22.8177 35.4359 22.7194C35.2355 22.5637 35.0289 22.416 34.8167 22.2767C36.8121 21.6575 34.3136 18.5919 36.5865 17.8199C37.5242 17.5345 38.3508 16.9666 38.9535 16.1936C39.5561 15.4207 39.9054 14.4805 39.9535 13.5016C39.2166 13.1577 38.5414 12.6948 37.955 12.1316C37.8474 12.0414 37.9894 11.8552 38.1098 11.9342C39.7379 13.0132 41.7578 14.1216 43.6441 14.5976C45.595 15.0798 50.8889 16.4061 53.4865 11.671C56.0962 6.94869 53.6959 5.40336 53.6959 5.40336ZM48.2812 13.4044C46.5826 13.5689 44.4781 13.2729 43.1518 12.0886C43.0744 12.0232 43.1831 11.9152 43.2617 11.9791C44.4885 12.983 46.5277 13.0971 48.0513 12.9985C50.0681 12.856 51.9532 11.8804 52.6986 9.91862C52.7044 9.89537 52.7192 9.87538 52.7397 9.86304C52.7603 9.8507 52.7849 9.84703 52.8081 9.85283C52.8314 9.85863 52.8513 9.87343 52.8637 9.89397C52.876 9.91451 52.8797 9.93911 52.8739 9.96235C52.3038 12.1219 50.3966 13.1962 48.2812 13.4044Z" fill="#191919"/>
<path d="M59.3965 53.033C59.1771 52.9784 58.6283 53.1816 57.7297 53.6309C58.2528 54.2424 58.6048 54.9815 58.7498 55.773C58.7746 55.948 58.5652 56.0571 58.4646 55.8938C58.2603 55.5625 58.136 55.1921 57.9615 54.8415C57.9418 54.8028 57.463 53.8171 57.4243 53.7784C57.3036 53.8442 57.1832 53.8987 57.0516 53.9758C57.8257 52.831 59.9295 49.9121 59.4081 49.164C58.4576 47.8006 51.5158 43.0493 49.9384 43.4428C49.6752 43.5083 49.0614 43.6619 47.1213 48.0572C47.1987 45.0977 47.1213 42.8178 46.7269 42.5109C45.5086 41.5647 37.6709 41.7953 36.0733 42.5001C35.5795 42.7184 35.4486 44.6484 35.6789 48.2433C34.6595 45.3497 33.8348 43.1278 33.6278 42.9277C33.4942 42.7977 33.2543 42.7822 32.8057 42.9057C30.8622 43.4401 23.5627 47.1802 23.3468 48.0351C23.1421 48.844 31.9241 66.0521 32.6958 67.5792C32.6912 67.614 32.695 67.6493 32.7069 67.6823C32.7189 67.7152 32.7386 67.7448 32.7645 67.7685C32.7903 67.7921 32.8215 67.8092 32.8554 67.8183C32.8892 67.8273 32.9248 67.828 32.959 67.8203C33.5333 67.6597 33.574 67.5548 37.8036 64.3349C39.5235 63.0253 40.0324 62.5043 40.8177 62.2524C43.6428 61.3464 46.2169 67.4674 43.4261 71.0534C43.2392 71.2941 43.514 71.6235 43.733 71.514C43.7884 71.514 64.1285 64.7413 63.988 62.7454C63.7763 59.7488 60.6481 53.3461 59.3965 53.033ZM43.942 46.4128C44.5999 46.4468 45.5427 46.4457 46.1124 46.8075C46.14 46.8232 46.1615 46.8478 46.1734 46.8772C46.1853 46.9067 46.1869 46.9393 46.178 46.9698C46.169 47.0003 46.15 47.0268 46.124 47.0452C46.0981 47.0635 46.0667 47.0725 46.035 47.0707C45.7002 47.0529 45.2149 46.8745 43.9412 46.7309C43.745 46.7085 43.7338 46.4023 43.942 46.4128ZM40.1609 46.424C40.9913 46.2621 41.8464 46.277 42.6707 46.4677C42.7024 46.4785 42.7295 46.4999 42.7474 46.5282C42.7653 46.5565 42.773 46.5901 42.7691 46.6234C42.7653 46.6567 42.7502 46.6877 42.7263 46.7112C42.7024 46.7347 42.6711 46.7493 42.6378 46.7526C42.2434 46.7777 41.8487 46.6976 41.4651 46.6872C41.0487 46.6756 40.6211 46.6759 40.2046 46.6759C40.0514 46.6759 40.0181 46.4445 40.1621 46.424H40.1609ZM36.1275 46.7855C36.9887 46.5581 37.8786 46.4585 38.7688 46.4898C38.7993 46.4854 38.8303 46.4934 38.8549 46.5118C38.8796 46.5303 38.8958 46.5578 38.9002 46.5883C38.9046 46.6188 38.8966 46.6497 38.8782 46.6744C38.8597 46.699 38.8322 46.7153 38.8017 46.7197C37.9409 46.9511 37.0515 47.0582 36.1604 47.0378C36.0288 47.0401 35.9951 46.8153 36.1275 46.7855ZM33.0476 67.2924C30.5375 62.3604 27.2494 55.7951 25.3534 51.7617C25.6785 51.6169 26.8489 50.9764 27.0849 50.6656C27.1844 50.5348 27.0188 50.3882 26.8876 50.4137C26.2954 50.6968 25.7304 51.0336 25.1998 51.4199C24.6607 50.3595 24.1921 49.2647 23.7969 48.1427C24.343 47.3381 32.3773 43.1336 33.3433 43.2544C33.8464 44.0435 37.4975 54.7738 39.9198 62.0631C39.2901 62.4451 33.6506 66.8729 33.0476 67.2924ZM41.0909 56.6937C41.052 56.7293 41.0012 56.7489 40.9485 56.7489C40.8958 56.7489 40.845 56.7293 40.806 56.6937L38.3431 54.5458C38.3118 54.5202 38.2888 54.4859 38.2771 54.4472C38.2653 54.4085 38.2653 54.3672 38.277 54.3285C38.2887 54.2898 38.3117 54.2554 38.3429 54.2298C38.3742 54.2041 38.4124 54.1883 38.4526 54.1844L40.2062 53.9649C40.2623 53.9649 40.294 53.8929 40.294 53.8446C40.1884 53.211 39.6036 51.113 39.943 50.9621C40.241 50.8294 42.0089 50.6242 42.0913 50.9838C42.0329 51.9502 41.8788 52.9085 41.6312 53.8446C41.6268 53.859 41.6257 53.8742 41.6279 53.8892C41.6301 53.9041 41.6356 53.9184 41.6439 53.9309C41.6523 53.9435 41.6633 53.9541 41.6762 53.9619C41.6891 53.9697 41.7036 53.9746 41.7186 53.9761L43.3189 54.0636C43.3594 54.0642 43.3988 54.0769 43.4319 54.1002C43.465 54.1235 43.4903 54.1563 43.5045 54.1942C43.5188 54.2321 43.5212 54.2734 43.5116 54.3128C43.5019 54.3521 43.4806 54.3876 43.4505 54.4146L41.0909 56.6937ZM55.23 61.615C54.5503 62.0109 53.9018 62.4579 53.2899 62.9521C53.4981 63.588 53.7179 64.2196 53.9254 64.8593C54.007 65.1101 53.6421 65.3295 53.476 65.1225C53.0971 64.6563 52.675 64.2269 52.2155 63.8399C51.5576 64.3991 50.9272 64.975 50.2758 65.506C50.068 65.6755 49.6926 65.518 49.8045 65.2757C49.8238 65.2181 50.3006 64.1255 50.5715 63.4893C50.6601 63.2815 50.736 63.0636 50.8238 62.8426C50.2225 62.4801 49.5919 62.1685 48.9387 61.9111C48.8767 61.8912 48.8238 61.8501 48.7893 61.7949C48.7548 61.7397 48.7409 61.6741 48.7502 61.6097C48.7595 61.5453 48.7913 61.4863 48.84 61.4431C48.8886 61.3999 48.9511 61.3754 49.0161 61.3739C49.8052 61.3499 50.5943 61.3081 51.3726 61.2752C51.515 60.8042 51.6435 60.3216 51.767 59.8285C51.7842 59.7753 51.8178 59.7289 51.863 59.696C51.9082 59.6631 51.9626 59.6454 52.0185 59.6454C52.0745 59.6454 52.1289 59.6631 52.1741 59.696C52.2193 59.7289 52.2529 59.7753 52.2701 59.8285C52.4249 60.2886 52.5784 60.7489 52.7306 61.2094C53.5198 61.1657 54.3201 61.139 55.1088 61.1107C55.167 61.1138 55.2227 61.1355 55.2675 61.1727C55.3124 61.2099 55.344 61.2606 55.3578 61.3172C55.3716 61.3738 55.3667 61.4334 55.344 61.487C55.3212 61.5406 55.2818 61.5855 55.2315 61.615H55.23ZM43.1939 62.3166C42.9338 62.0952 42.637 61.9209 42.3169 61.8015C43.663 57.8497 46.2645 50.875 48.0602 47.0378C48.4546 47.224 48.893 47.3443 49.277 47.5409C49.6384 47.7271 49.9782 47.979 50.3509 48.1656C50.4604 48.2201 50.6392 48.0974 50.5483 47.9682C49.9596 47.2669 49.1235 46.8194 48.2134 46.7185C49.3536 44.3403 49.847 43.9034 50.044 43.8581C51.3885 43.5485 58.1492 48.1249 59.0316 49.404C59.0536 49.4477 59.2135 49.8506 57.475 52.5276C57.0576 53.1653 56.6265 53.7939 56.182 54.4131C52.5573 56.4248 46.5454 60.1699 43.197 62.3166H43.1939ZM60.2484 59.3901C60.2387 59.5216 60.0289 59.6203 59.9631 59.4675C59.6346 58.7004 59.3071 57.9105 59.0316 57.133C58.977 56.9782 59.2085 56.8911 59.2835 57.0235C59.5309 57.4546 59.7577 57.8972 59.9631 58.3498C60.1439 58.6673 60.243 59.0248 60.2514 59.3901H60.2484ZM61.4477 63.1932C61.0422 62.4151 60.7325 61.5907 60.5255 60.738C60.4581 60.519 60.7774 60.4419 60.8649 60.6502C61.2584 61.4315 61.5495 62.2604 61.731 63.1162C61.7418 63.2811 61.5131 63.3024 61.4477 63.1932Z" fill="#FFDD00"/>
</svg>
