<svg width="42" height="42" viewBox="0 0 42 42" fill="none" xmlns="http://www.w3.org/2000/svg">
<g opacity="0.2">
<path d="M28.5575 22.642C29.5919 22.9398 30.6264 23.0909 31.6326 23.0909C33.1865 23.0909 34.483 22.7358 35.4884 22.301C34.5192 25.8493 32.1908 31.9718 27.5526 32.6613C27.123 32.7252 26.771 33.0358 26.6538 33.4539L25.6401 37.0798C25.5546 37.3864 25.6053 37.7146 25.7802 37.9807C25.9551 38.2468 26.2362 38.4244 26.5512 38.4675C26.8935 38.5142 27.2424 38.538 27.5882 38.538C33.1556 38.538 38.6692 32.727 40.9958 24.4065C42.3616 19.525 42.7621 12.186 39.3979 7.56672C37.5154 4.98192 34.769 3.60162 31.2348 3.46373C31.2202 3.46329 31.2061 3.46285 31.1916 3.46285C26.8309 3.46285 22.9641 6.39966 21.7878 10.604C21.0851 13.1174 21.4028 15.7533 22.683 18.0279C23.9497 20.277 26.0357 21.9164 28.5575 22.642Z" fill="#FFDD00"/>
<path d="M1.26083 18.0275C2.52744 20.277 4.6135 21.9164 7.13527 22.642C8.16971 22.9398 9.20415 23.0909 10.2099 23.0909C11.7638 23.0909 13.0608 22.7358 14.0662 22.301C13.0969 25.8493 10.7686 31.9718 6.12991 32.6613C5.70037 32.7252 5.3488 33.0358 5.23117 33.4539L4.21744 37.0798C4.13197 37.3864 4.18263 37.7146 4.35754 37.9807C4.532 38.2468 4.81308 38.4244 5.12852 38.4675C5.47039 38.5142 5.81932 38.538 6.1656 38.538C11.733 38.538 17.2466 32.727 19.5736 24.4065C20.9389 19.525 21.3394 12.1861 17.9748 7.56584C16.0928 4.98148 13.3459 3.60075 9.81212 3.46329C9.79758 3.46285 9.78348 3.46241 9.7685 3.46241C5.40827 3.46241 1.54103 6.39922 0.364733 10.6035C-0.33708 13.117 -0.0189972 15.7533 1.26083 18.0275Z" fill="#FFDD00"/>
</g>
</svg>
