<svg width="84" height="84" viewBox="0 0 84 84" fill="none" xmlns="http://www.w3.org/2000/svg">
<g filter="url(#filter0_d_209_429)">
<path d="M52.7999 36.8H43.2V27.1999C43.2 26.5377 42.6624 26 41.9999 26C41.3376 26 40.8 26.5377 40.8 27.1999V36.8H31.1999C30.5377 36.8 30 37.3376 30 37.9999C30 38.6624 30.5377 39.2 31.1999 39.2H40.8V48.7999C40.8 49.4623 41.3376 50 41.9999 50C42.6624 50 43.2 49.4623 43.2 48.7999V39.2H52.7999C53.4623 39.2 54 38.6624 54 37.9999C54 37.3376 53.4623 36.8 52.7999 36.8Z" fill="#FFDD00"/>
<rect x="13" y="9" width="58" height="58" rx="29" stroke="#FFDD00" stroke-width="2" shape-rendering="crispEdges"/>
</g>
<defs>
<filter id="filter0_d_209_429" x="0" y="0" width="84" height="84" filterUnits="userSpaceOnUse" color-interpolation-filters="sRGB">
<feFlood flood-opacity="0" result="BackgroundImageFix"/>
<feColorMatrix in="SourceAlpha" type="matrix" values="0 0 0 0 0 0 0 0 0 0 0 0 0 0 0 0 0 0 127 0" result="hardAlpha"/>
<feOffset dy="4"/>
<feGaussianBlur stdDeviation="6"/>
<feComposite in2="hardAlpha" operator="out"/>
<feColorMatrix type="matrix" values="0 0 0 0 0 0 0 0 0 0 0 0 0 0 0 0 0 0 0.04 0"/>
<feBlend mode="normal" in2="BackgroundImageFix" result="effect1_dropShadow_209_429"/>
<feBlend mode="normal" in="SourceGraphic" in2="effect1_dropShadow_209_429" result="shape"/>
</filter>
</defs>
</svg>
