<svg width="87" height="86" viewBox="0 0 87 86" fill="none" xmlns="http://www.w3.org/2000/svg">
<g filter="url(#filter0_d_36_34878)">
<rect x="15.5" y="11" width="56" height="56" rx="28" fill="#DCEBFF" shape-rendering="crispEdges"/>
<g clip-path="url(#clip0_36_34878)">
<path d="M59.2971 38.6448V42.2729C59.2971 44.1921 57.7415 45.7476 55.8223 45.7476H44.9819C44.3867 45.7476 43.9084 46.2446 43.9363 46.8457C43.9641 47.415 44.4565 47.8403 45.0117 47.8403H47.5754C48.1541 47.8403 48.6223 48.3093 48.6223 48.8872V51.5032C48.6223 53.4348 47.0564 55 45.1257 55H42.0845C40.1531 55 38.5872 53.4348 38.5872 51.5032V42.2871H31.2249C29.3057 42.2871 27.75 40.7314 27.75 38.8123V35.7266C27.75 33.8074 29.3057 32.2517 31.2249 32.2517H38.5872V32.2512H41.7603C42.3542 32.2512 42.833 31.7561 42.8059 31.155C42.7793 30.592 42.2947 30.158 41.7305 30.158H39.634C39.0562 30.158 38.5872 29.6895 38.5872 29.1116V26.4968C38.5872 24.5652 40.1531 23 42.0845 23H45.1257C47.0532 23 48.6167 24.5593 48.6223 26.4871V35.1699H55.8223C57.7415 35.1699 59.2971 36.7263 59.2971 38.6448Z" fill="#FFDA44"/>
<path d="M59.2971 38.6448V42.2729C59.2971 44.1921 57.7415 45.7476 55.8223 45.7476H44.9819C44.3867 45.7476 43.9084 46.2446 43.9363 46.8457C43.9641 47.415 44.4565 47.8403 45.0117 47.8403H47.5754C48.1541 47.8403 48.6223 48.3093 48.6223 48.8872V51.5032C48.6223 53.4348 47.0564 55 45.1257 55H43.605V23H45.1257C47.0532 23 48.6167 24.5593 48.6223 26.4871V35.1699H55.8223C57.7415 35.1699 59.2971 36.7263 59.2971 38.6448Z" fill="#FFCD00"/>
<path d="M47.6414 50.3228C47.6414 50.9006 47.1731 51.3691 46.5952 51.3691C46.0173 51.3691 45.5488 50.9006 45.5488 50.3228C45.5488 49.7449 46.0173 49.2766 46.5952 49.2766C47.1731 49.2766 47.6414 49.7449 47.6414 50.3228Z" fill="#4895FF"/>
<path d="M47.6414 50.3228C47.6414 50.9006 47.1731 51.3691 46.5952 51.3691V49.2766C47.1731 49.2766 47.6414 49.7449 47.6414 50.3228Z" fill="#2682FF"/>
<path d="M48.6223 26.4871V35.1699V36.6045C48.6223 37.761 47.6855 38.6978 46.5291 38.6978H39.634C39.0562 38.6978 38.5872 39.167 38.5872 39.7441V42.2871H31.2249C29.3057 42.2871 27.75 40.731 27.75 38.8123V35.7266C27.75 33.8079 29.3057 32.2517 31.2249 32.2517H38.5872V32.2512H41.7603C42.3542 32.2512 42.833 31.7561 42.8059 31.155C42.7793 30.592 42.2947 30.158 41.7305 30.158H39.634C39.0562 30.158 38.5872 29.6895 38.5872 29.1116V26.4968C38.5872 24.5652 40.1531 23 42.0845 23H45.1257C47.0532 23 48.6167 24.5593 48.6223 26.4871Z" fill="#4895FF"/>
<path d="M48.6223 26.4871V35.1699V36.6045C48.6223 37.761 47.6855 38.6978 46.5291 38.6978H43.605V23H45.1257C47.0532 23 48.6167 24.5593 48.6223 26.4871Z" fill="#2682FF"/>
<path d="M41.9021 27.9185C41.9021 28.4961 41.4336 28.9646 40.8557 28.9646C40.2771 28.9646 39.8088 28.4961 39.8088 27.9185C39.8088 27.3406 40.2771 26.8713 40.8557 26.8713C41.4336 26.8713 41.9021 27.3406 41.9021 27.9185Z" fill="#FFDA44"/>
<path d="M41.9021 27.9185C41.9021 28.4961 41.4336 28.9646 40.8557 28.9646V26.8713C41.4336 26.8713 41.9021 27.3406 41.9021 27.9185Z" fill="#FFCD00"/>
</g>
<rect x="14" y="9.5" width="59" height="59" rx="29.5" stroke="#9CC6FF" stroke-opacity="0.67" stroke-width="3" shape-rendering="crispEdges"/>
</g>
<defs>
<filter id="filter0_d_36_34878" x="0.5" y="0" width="86" height="86" filterUnits="userSpaceOnUse" color-interpolation-filters="sRGB">
<feFlood flood-opacity="0" result="BackgroundImageFix"/>
<feColorMatrix in="SourceAlpha" type="matrix" values="0 0 0 0 0 0 0 0 0 0 0 0 0 0 0 0 0 0 127 0" result="hardAlpha"/>
<feOffset dy="4"/>
<feGaussianBlur stdDeviation="6"/>
<feComposite in2="hardAlpha" operator="out"/>
<feColorMatrix type="matrix" values="0 0 0 0 0 0 0 0 0 0 0 0 0 0 0 0 0 0 0.04 0"/>
<feBlend mode="normal" in2="BackgroundImageFix" result="effect1_dropShadow_36_34878"/>
<feBlend mode="normal" in="SourceGraphic" in2="effect1_dropShadow_36_34878" result="shape"/>
</filter>
<clipPath id="clip0_36_34878">
<rect width="32" height="32" fill="white" transform="translate(27.5 23)"/>
</clipPath>
</defs>
</svg>
