<svg width="20" height="20" viewBox="0 0 20 20" fill="currentColor" xmlns="http://www.w3.org/2000/svg">
<g clip-path="url(#clip0_211_5344)">
<path d="M10 0.62467C8.62092 0.624693 7.30927 0.921581 6.12915 1.45719C5.9676 1.53053 5.89941 1.72342 5.979 1.88197L6.53747 3.00075C6.61247 3.15101 6.79278 3.21515 6.9458 3.14601C7.87863 2.72952 8.91111 2.50028 10 2.50028C14.1458 2.50028 17.4994 5.85385 17.4994 9.99967C17.4994 11.5593 17.0194 13.0005 16.2054 14.2007L15.2203 13.215C15.153 13.1475 15.0587 13.1145 14.964 13.1252C14.8061 13.1435 14.6871 13.2775 14.6875 13.4365V16.874C14.6869 17.0466 14.8262 17.187 14.9988 17.1877H18.4357C18.7165 17.1901 18.8574 16.8494 18.6572 16.6525L17.5494 15.5447C18.6923 13.991 19.375 12.0748 19.375 9.99963C19.375 4.82566 15.174 0.624658 10 0.62467ZM1.56128 2.81155C1.28338 2.81166 1.14383 3.14727 1.33972 3.3444L2.44812 4.4528C1.30505 6.00667 0.625 7.92411 0.625 9.99967C0.625 15.1736 4.82604 19.3747 10 19.3747C11.3791 19.3747 12.6907 19.0753 13.8708 18.5397C14.0322 18.4661 14.1 18.2733 14.0204 18.1149L13.4601 16.9961C13.3852 16.8472 13.2066 16.7833 13.0542 16.8509C12.1214 17.2674 11.0889 17.4991 10 17.4991C5.85417 17.4991 2.50061 14.1455 2.50061 9.99967C2.50061 8.44063 2.97782 6.99769 3.79089 5.7974L4.77966 6.78372C4.97679 6.97963 5.31239 6.84004 5.3125 6.56215V3.12528C5.31312 2.95175 5.17232 2.81089 4.99878 2.81155H1.56128ZM9.99939 4.99905C7.24167 4.99905 5.00061 7.24256 5.00061 10.0003C5.00061 12.758 7.24167 14.9991 9.99939 14.9991C12.7571 14.9991 15.0006 12.758 15.0006 10.0003C15.0006 7.24256 12.7571 4.99905 9.99939 4.99905ZM9.99814 6.24723C10.1544 6.24723 10.3106 6.35126 10.3106 6.5597V7.22194C11.0219 7.36721 11.5612 7.99941 11.5612 8.7521C11.5707 9.17811 10.9268 9.17811 10.9362 8.7521C10.9362 8.23063 10.5208 7.81581 9.99936 7.81581C9.47789 7.81581 9.06308 8.23063 9.06308 8.7521C9.06308 9.27357 9.47789 9.689 9.99936 9.689C10.8586 9.689 11.5612 10.3935 11.5612 11.2527C11.5612 12.0054 11.0219 12.6382 10.3106 12.7835V13.4396C10.3106 13.8564 9.68564 13.8564 9.68564 13.4396V12.7829C8.97555 12.6367 8.43808 12.0046 8.43808 11.2527C8.44711 10.8452 9.05363 10.8452 9.06308 11.2527C9.06308 11.7742 9.47789 12.1896 9.99936 12.1896C10.5208 12.1896 10.9362 11.7742 10.9362 11.2527C10.9362 10.7312 10.5208 10.314 9.99936 10.314C9.14011 10.314 8.43808 9.61134 8.43808 8.7521C8.43808 8.00026 8.97555 7.36877 9.68564 7.22256V6.5597C9.68564 6.35132 9.84185 6.24723 9.99814 6.24723Z" fill="currentColor"/>
</g>
<defs>
<clipPath id="clip0_211_5344">
<rect width="20" height="20" fill="white"/>
</clipPath>
</defs>
</svg>
