<svg width="24" height="24" viewBox="0 0 24 24" fill="none" xmlns="http://www.w3.org/2000/svg">
<path d="M8.6828 24C5.11088 23.9794 2.15625 16.6879 2.15625 12.9745C2.15625 6.90872 6.70664 5.58075 8.46033 5.58075C9.25064 5.58075 10.0945 5.89111 10.8389 6.16575C11.3594 6.35733 11.8977 6.55509 12.1971 6.55509C12.3763 6.55509 12.7986 6.38686 13.1714 6.23925C13.9665 5.9227 14.956 5.52928 16.1082 5.52928C16.1102 5.52928 16.113 5.52928 16.115 5.52928C16.9754 5.52928 19.584 5.71809 21.1522 8.07328L21.5196 8.62533L20.9909 9.02428C20.2356 9.59419 18.8575 10.6338 18.8575 12.693C18.8575 15.132 20.4182 16.07 21.168 16.5211C21.499 16.7202 21.8416 16.9255 21.8416 17.3746C21.8416 17.6678 19.5015 23.9636 16.1033 23.9636C15.2718 23.9636 14.6841 23.7137 14.1656 23.4933C13.641 23.2701 13.1885 23.0779 12.4408 23.0779C12.0617 23.0779 11.5824 23.2571 11.075 23.4473C10.3816 23.7061 9.59672 24 8.70614 24H8.6828Z" fill="black"/>
<path d="M16.4698 0C16.5583 3.19106 14.2762 5.40488 11.9967 5.26603C11.6211 2.71945 14.2759 0 16.4698 0Z" fill="black"/>
</svg>
