<svg width="24" height="24" viewBox="0 0 24 24" fill="none" xmlns="http://www.w3.org/2000/svg">
<path d="M4.76 18.81C4.76 18.81 4.84 18.81 4.87 18.81L7.8 18.54C8.21 18.5 8.59 18.32 8.88 18.03L19.94 6.96998C20.46 6.44998 20.75 5.75998 20.75 5.02998C20.75 4.29998 20.46 3.60998 19.94 3.08998L19.23 2.37998C18.19 1.33998 16.38 1.33998 15.34 2.37998L13.93 3.78998L4.29 13.43C4 13.72 3.82 14.1 3.79 14.51L3.52 17.44C3.49 17.81 3.62 18.17 3.88 18.44C4.12 18.68 4.43 18.81 4.76 18.81ZM17.29 3.06998C17.61 3.06998 17.93 3.18998 18.17 3.43998L18.88 4.14998C19.12 4.38998 19.25 4.69998 19.25 5.02998C19.25 5.35998 19.12 5.67998 18.88 5.90998L18 6.78998L15.53 4.31998L16.41 3.43998C16.65 3.19998 16.97 3.06998 17.29 3.06998ZM5.28 14.65C5.28 14.59 5.31 14.54 5.35 14.5L14.46 5.37998L16.93 7.84998L7.82 16.96C7.82 16.96 7.72 17.03 7.67 17.03L5.04 17.27L5.28 14.64V14.65ZM22.75 22C22.75 22.41 22.41 22.75 22 22.75H2C1.59 22.75 1.25 22.41 1.25 22C1.25 21.59 1.59 21.25 2 21.25H22C22.41 21.25 22.75 21.59 22.75 22Z" fill="#232859"/>
</svg>
