<svg width="320" height="80" viewBox="0 0 320 80" fill="none" xmlns="http://www.w3.org/2000/svg">
<mask id="mask0_123_293" style="mask-type:luminance" maskUnits="userSpaceOnUse" x="145" y="8" width="170" height="64">
<path d="M145.901 8H315V72H145.901V8Z" fill="white"/>
</mask>
<g mask="url(#mask0_123_293)">
<mask id="mask1_123_293" style="mask-type:luminance" maskUnits="userSpaceOnUse" x="145" y="8" width="170" height="64">
<path d="M149.901 8H311C313.208 8 315 9.79167 315 12V68C315 70.2083 313.208 72 311 72H149.901C147.693 72 145.901 70.2083 145.901 68V12C145.901 9.79167 147.693 8 149.901 8Z" fill="white"/>
</mask>
<g mask="url(#mask1_123_293)">
<path d="M145.901 8H315V72H145.901V8Z" fill="black"/>
</g>
</g>
<path d="M33.2645 63.076C30.2333 63.076 27.5354 62.602 25.1604 61.6593C22.7854 60.701 20.7906 59.4093 19.1812 57.7843C17.5822 56.1593 16.3583 54.2947 15.5145 52.1801C14.6812 50.0708 14.2645 47.8468 14.2645 45.5135C14.2645 43.0135 14.6656 40.6489 15.4729 38.4093C16.2906 36.1593 17.5041 34.201 19.1187 32.5343C20.7281 30.8572 22.7072 29.5239 25.0562 28.5343C27.3999 27.5343 30.1395 27.0343 33.2645 27.0343C36.3479 27.0343 39.077 27.5343 41.452 28.5343C43.827 29.5239 45.8114 30.8416 47.4104 32.4926C49.0197 34.1489 50.2281 36.0656 51.0354 38.2426C51.8531 40.4093 52.2645 42.6801 52.2645 45.0551C52.2645 45.7218 52.2281 46.3989 52.1604 47.076C52.1031 47.7583 52.0354 48.3624 51.952 48.8885H27.5979C27.7229 50.7374 28.3999 52.0708 29.6395 52.8885C30.8739 53.6958 32.2124 54.0968 33.6604 54.0968C35.0197 54.0968 36.3062 53.7947 37.5145 53.1801C38.7333 52.5551 39.5406 51.6958 39.9312 50.5968L50.5562 53.6385C49.1499 56.4041 46.9833 58.6697 44.0562 60.4301C41.1239 62.1958 37.5249 63.076 33.2645 63.076ZM38.8062 41.3676C38.5822 39.6906 37.9624 38.3676 36.952 37.4093C35.952 36.4406 34.6604 35.951 33.077 35.951C31.4937 35.951 30.1916 36.4406 29.1812 37.4093C28.1656 38.3676 27.5458 39.6906 27.327 41.3676H38.8062Z" fill="black"/>
<path d="M70.9434 63.0759C68.5684 63.0759 66.3809 62.6384 64.3809 61.7634C62.3809 60.878 60.6517 59.6332 59.1934 58.0342C57.7454 56.4248 56.6152 54.5082 55.7975 52.2842C54.9746 50.0655 54.5684 47.6332 54.5684 44.9926C54.5684 42.4405 54.9434 40.0655 55.6934 37.8676C56.4434 35.6748 57.485 33.7738 58.8184 32.1592C60.1621 30.5498 61.7611 29.2946 63.61 28.3884C65.4538 27.4873 67.5059 27.0342 69.7559 27.0342C71.9902 27.0342 74.0371 27.5446 75.9017 28.5551C77.7767 29.5707 79.2194 31.003 80.235 32.8467V14.2426H92.7767V48.5551C92.7767 49.7373 92.9902 50.5655 93.4225 51.0342C93.8652 51.4926 94.6621 51.7634 95.8184 51.8467V62.4092C94.5371 62.628 93.4121 62.7946 92.4434 62.9092C91.485 63.0186 90.6309 63.0759 89.8809 63.0759C85.5996 63.0759 83.1361 61.4665 82.485 58.2426L82.2142 56.9926C81.0319 59.1071 79.4277 60.6488 77.4017 61.6176C75.3704 62.5863 73.2194 63.0759 70.9434 63.0759ZM74.36 52.5134C76.6517 52.5134 78.6309 51.3259 80.2975 48.9509V42.7426C79.6829 41.2009 78.7819 39.9613 77.5892 39.0134C76.4069 38.0707 75.1569 37.5967 73.8392 37.5967C72.9225 37.5967 72.0736 37.7998 71.2975 38.2009C70.5319 38.5915 69.8704 39.1384 69.3184 39.8467C68.7767 40.5551 68.3392 41.378 68.0059 42.3051C67.6725 43.2217 67.5059 44.2113 67.5059 45.2634C67.5059 47.4613 68.1309 49.2165 69.3809 50.5342C70.6413 51.8571 72.3027 52.5134 74.36 52.5134Z" fill="black"/>
<path d="M111.316 63.0759C107.785 63.0759 105.098 62.0082 103.254 59.8676C101.405 57.7322 100.483 54.6176 100.483 50.5343V27.7009H113.025V47.7009C113.025 49.2426 113.363 50.4301 114.046 51.2634C114.723 52.0968 115.66 52.5134 116.858 52.5134C117.816 52.5134 118.801 52.2999 119.816 51.8676C120.827 51.4249 121.842 50.4509 122.858 48.9509V27.7009H135.4V48.5551C135.4 49.7374 135.613 50.5655 136.046 51.0343C136.488 51.4926 137.28 51.7634 138.421 51.8468V62.4093C137.155 62.628 136.035 62.7947 135.066 62.9093C134.092 63.0186 133.233 63.0759 132.483 63.0759C128.217 63.0759 125.759 61.4666 125.108 58.2426L124.837 56.9926C123.212 59.1488 121.275 60.7009 119.025 61.6593C116.785 62.602 114.217 63.0759 111.316 63.0759Z" fill="black"/>
<path d="M156.284 45.0551C156.284 42.6801 156.7 40.4093 157.534 38.2426C158.377 36.0656 159.601 34.1489 161.2 32.4926C162.81 30.8416 164.804 29.5239 167.179 28.5343C169.554 27.5343 172.273 27.0343 175.346 27.0343C179.565 27.0343 183.096 27.9197 185.929 29.6801C188.773 31.4458 190.898 33.7114 192.304 36.4718L180.096 40.1801C178.914 38.4614 177.31 37.5968 175.284 37.5968C173.575 37.5968 172.122 38.2531 170.929 39.5551C169.747 40.8468 169.159 42.6801 169.159 45.0551C169.159 47.4301 169.747 49.2739 170.929 50.576C172.122 51.8676 173.575 52.5135 175.284 52.5135C177.31 52.5135 178.914 51.6541 180.096 49.9301L192.304 53.6385C190.898 56.4041 188.773 58.6697 185.929 60.4301C183.096 62.1958 179.565 63.076 175.346 63.076C172.273 63.076 169.554 62.5812 167.179 61.5968C164.804 60.5968 162.81 59.2791 161.2 57.6385C159.601 55.9874 158.377 54.0708 157.534 51.8885C156.7 49.7114 156.284 47.4301 156.284 45.0551Z" fill="#FFDD00"/>
<path d="M231.094 62.4092H218.574V42.8884C218.574 41.1696 218.183 39.9248 217.407 39.1592C216.641 38.3832 215.683 37.9926 214.532 37.9926C214.141 37.9926 213.667 38.1176 213.115 38.3676C212.574 38.6071 212.022 38.9301 211.469 39.3467C210.928 39.7634 210.412 40.2842 209.928 40.9092C209.438 41.5238 209.042 42.2009 208.74 42.9509V62.4092H196.199V14.2426H208.74V32.8467C209.959 30.9613 211.558 29.5238 213.532 28.5342C215.516 27.5342 217.745 27.0342 220.219 27.0342C222.636 27.0342 224.563 27.4613 226.011 28.3051C227.469 29.1384 228.574 30.1801 229.324 31.4301C230.074 32.6801 230.553 34.0342 230.761 35.4926C230.98 36.9405 231.094 38.2998 231.094 39.5759V62.4092Z" fill="#FFDD00"/>
<path d="M247.395 63.076C245.671 63.076 244.061 62.7895 242.561 62.2218C241.072 61.6385 239.79 60.8572 238.707 59.8676C237.634 58.8833 236.79 57.7114 236.165 56.3468C235.551 54.9718 235.249 53.4926 235.249 51.9093C235.249 50.1593 235.624 48.5656 236.374 47.1176C237.124 45.6593 238.155 44.4041 239.478 43.3468C240.796 42.2947 242.363 41.4822 244.186 40.9093C246.02 40.326 248.03 40.0343 250.228 40.0343C253.046 40.0343 255.379 40.4822 257.228 41.3676V40.3051C257.228 38.6801 256.754 37.4718 255.811 36.6801C254.863 35.8885 253.337 35.4926 251.228 35.4926C249.238 35.4926 247.405 35.8156 245.728 36.451C244.061 37.0916 242.301 38.0239 240.457 39.2426L236.832 31.4718C241.415 28.5135 246.629 27.0343 252.478 27.0343C258.02 27.0343 262.28 28.2739 265.27 30.7426C268.27 33.201 269.77 36.8989 269.77 41.826V48.5551C269.77 49.7374 269.983 50.5656 270.415 51.0343C270.858 51.4926 271.65 51.7635 272.79 51.8468V62.4093C271.65 62.6281 270.572 62.7947 269.561 62.9093C268.546 63.0187 267.645 63.076 266.853 63.076C264.613 63.076 262.915 62.6645 261.749 61.8468C260.582 61.0291 259.816 59.826 259.457 58.2426L259.207 56.9926C257.665 58.9822 255.879 60.4926 253.853 61.5343C251.837 62.5603 249.686 63.076 247.395 63.076ZM251.145 54.0968C251.895 54.0968 252.665 53.9822 253.457 53.7426C254.249 53.4926 254.957 53.1749 255.582 52.7843C256.051 52.4249 256.441 52.0343 256.749 51.6176C257.066 51.201 257.228 50.7739 257.228 50.326V47.7635C256.478 47.5031 255.655 47.2843 254.77 47.1176C253.895 46.9406 253.108 46.8468 252.415 46.8468C250.874 46.8468 249.593 47.2218 248.582 47.9718C247.566 48.7114 247.061 49.6541 247.061 50.8051C247.061 51.7635 247.441 52.5551 248.207 53.1801C248.983 53.7947 249.962 54.0968 251.145 54.0968Z" fill="#FFDD00"/>
<path d="M301.365 60.4926C299.599 61.2426 297.719 61.878 295.719 62.3884C293.719 62.8884 291.745 63.1384 289.803 63.1384C288.396 63.1384 287.058 62.9561 285.782 62.5968C284.5 62.253 283.391 61.6801 282.448 60.8884C281.5 60.0968 280.75 59.0655 280.198 57.7843C279.657 56.5082 279.386 54.9249 279.386 53.0343V37.1384H275.094V27.7009H279.386V16.8259H291.928V27.7009H298.719V37.1384H291.928V48.6176C291.928 49.7582 292.162 50.5655 292.636 51.0343C293.12 51.4926 293.787 51.7218 294.636 51.7218C295.245 51.7218 295.948 51.628 296.74 51.4301C297.532 51.2218 298.323 50.9457 299.115 50.5968L301.365 60.4926Z" fill="#FFDD00"/>
</svg>
