<svg width="24" height="24" viewBox="0 0 24 24" fill="none" xmlns="http://www.w3.org/2000/svg">
<g clip-path="url(#clip0_36_36012)">
<path d="M20.6016 23.2383H8.64844C7.1944 23.2383 6.01172 22.0556 6.01172 20.6016V8.64844C6.01172 7.1944 7.1944 6.01172 8.64844 6.01172H20.6016C22.0556 6.01172 23.2383 7.1944 23.2383 8.64844V20.6016C23.2383 22.0556 22.0556 23.2383 20.6016 23.2383ZM8.64844 7.76953C8.1638 7.76953 7.76953 8.1638 7.76953 8.64844V20.6016C7.76953 21.0862 8.1638 21.4805 8.64844 21.4805H20.6016C21.0862 21.4805 21.4805 21.0862 21.4805 20.6016V8.64844C21.4805 8.1638 21.0862 7.76953 20.6016 7.76953H8.64844ZM4.25391 16.207H3.375C2.89037 16.207 2.49609 15.8128 2.49609 15.3281V3.375C2.49609 2.89037 2.89037 2.49609 3.375 2.49609H15.3281C15.8128 2.49609 16.207 2.89037 16.207 3.375V4.20996H17.9648V3.375C17.9648 1.92096 16.7822 0.738281 15.3281 0.738281H3.375C1.92096 0.738281 0.738281 1.92096 0.738281 3.375V15.3281C0.738281 16.7822 1.92096 17.9648 3.375 17.9648H4.25391V16.207Z" fill="#232859"/>
</g>
<defs>
<clipPath id="clip0_36_36012">
<rect width="24" height="24" fill="white"/>
</clipPath>
</defs>
</svg>
