<svg width="16" height="16" viewBox="0 0 16 16" fill="none" xmlns="http://www.w3.org/2000/svg">
<path fill-rule="evenodd" clip-rule="evenodd" d="M1.65529 10.086L0.843957 5.016C0.790623 4.68333 0.93729 4.35 1.21862 4.16466C1.49996 3.97933 1.86329 3.976 2.14796 4.15533L4.68996 5.76066L7.35396 2.70733C7.51662 2.52066 7.75262 2.41333 7.99996 2.41333C8.24729 2.41333 8.48329 2.52066 8.64596 2.70733L11.31 5.76066L13.852 4.15533C14.1366 3.976 14.5 3.97933 14.7813 4.16466C15.0626 4.35 15.2093 4.68333 15.156 5.016L14.3446 10.086H1.65529ZM14.1846 11.086L13.948 12.564C13.854 13.1533 13.3453 13.5867 12.7493 13.5867H3.25062C2.65462 13.5867 2.14596 13.1533 2.05196 12.564L1.81529 11.086H14.1846Z" fill="#232859"/>
</svg>
