<svg width="20" height="21" viewBox="0 0 20 21" fill="none" xmlns="http://www.w3.org/2000/svg">
<path d="M7.08329 16.3334H6.66663C3.33329 16.3334 1.66663 15.5 1.66663 11.3334V7.16669C1.66663 3.83335 3.33329 2.16669 6.66663 2.16669H13.3333C16.6666 2.16669 18.3333 3.83335 18.3333 7.16669V11.3334C18.3333 14.6667 16.6666 16.3334 13.3333 16.3334H12.9166C12.6583 16.3334 12.4083 16.4584 12.25 16.6667L11 18.3334C10.45 19.0667 9.54996 19.0667 8.99996 18.3334L7.74996 16.6667C7.61663 16.4834 7.30829 16.3334 7.08329 16.3334Z" stroke="#292D32" stroke-width="1.5" stroke-miterlimit="10" stroke-linecap="round" stroke-linejoin="round"/>
<path d="M5.83337 7.16669H14.1667" stroke="#292D32" stroke-width="1.5" stroke-linecap="round" stroke-linejoin="round"/>
<path d="M5.83337 11.3333H10.8334" stroke="#292D32" stroke-width="1.5" stroke-linecap="round" stroke-linejoin="round"/>
</svg>
